<?xml version="1.0" encoding="utf-8"?>
<!-- Generator: Adobe Illustrator 17.0.0, SVG Export Plug-In . SVG Version: 6.00 Build 0)  -->
<!DOCTYPE svg PUBLIC "-//W3C//DTD SVG 1.1//EN" "http://www.w3.org/Graphics/SVG/1.1/DTD/svg11.dtd">
<svg version="1.1" id="Capa_1" xmlns="http://www.w3.org/2000/svg" xmlns:xlink="http://www.w3.org/1999/xlink" x="0px" y="0px"
	 width="291.1px" height="36.7px" viewBox="0 0 291.1 36.7" style="enable-background:new 0 0 291.1 36.7;" xml:space="preserve">
<g id="XMLID_30_">
	<path id="XMLID_63_" style="fill:#FFFFFF;" d="M290.4,31.7c-1.4,0.4-2.4-0.2-2.6-1.7c0-0.4-0.1-0.7-0.1-1.1c0-3.2,0.1-6.5,0-9.7
		c-0.2-3.8-2.3-6.1-4.9-7.1c-1-0.4-2-0.5-3.1-0.5l0,0l-1.7,0c-1.5,0-3.3,0.4-4.3,1.8c-1-1.4-2.8-1.8-4.3-1.8l-1.8,0l0,0
		c-0.1,0-0.2,0-0.2,0h-8.1c0,0,0,15.1,0,15.1v7.9c3.6,0,4.5-3,4.5-5.2c0,0,0-8.8,0-9.3c0-0.9,0.1-1.8,0.3-2.7
		c0.4-1.6,1.6-2.6,3.1-2.7c1.4-0.1,2.8,0.5,3.4,1.8c0.5,1,0.7,2.2,0.7,3.3c0,5,0,8.9,0,13.9c0,0.3,0,0.5,0,0.8c0,0,0,0,0,0v0
		c3.7,0,4.5-3,4.5-5.2c0,0,0-0.2,0-0.6h0c0-4.7,0-3.9,0-8.8c0-0.8,0.1-1.6,0.3-2.4c0.3-1.5,1.5-2.6,2.9-2.8c1.5-0.2,2.9,0.4,3.7,1.7
		c0.6,1.1,0.7,2.3,0.7,3.6c0,3.7-0.1,6,0,9.8c0,1,0.2,2,0.6,2.9c0.8,1.7,3.3,2.3,5.1,1.3c0.9-0.5,1.5-1.3,1.7-2.5
		C290.6,31.6,290.5,31.7,290.4,31.7z"/>
	<path id="XMLID_60_" style="fill:#FFFFFF;" d="M72,28.3c-1.3,0-1.9-0.8-1.9-2c0-1,0-15,0-15c0-4-1.5-9.4-8.1-9.4L51.1,2
		c-5.2,0-13.5,2.1-13.5,16.3c0,12,9,16.4,15.9,16.4c3,0,5.6,0.1,9.3-2.5c1.5,2.4,4.6,2.4,4.6,2.4c6.3,0,7.1-5.8,6.6-7.7
		C73.6,28,72.8,28.3,72,28.3z M54.4,30.5c-9.2,0-8.7-8.2-8.7-12.2c0-8.9,4.6-12.2,8.3-12.2h2.5c4.4,0,5.5,3.8,5.5,6.8
		c0,1.7,0,8.2,0,12.4v0C62,29.3,57.8,30.5,54.4,30.5z"/>
	<path id="XMLID_59_" style="fill:#FFFFFF;" d="M119.9,28.3c-1.3,0-1.9-0.8-1.9-2c0-1,0-15,0-15c0-4-1.5-9.4-8.1-9.4v10.8
		c0,2.5,0,16.2,0,16.2c0,5.5,5.4,5.5,5.4,5.5c6.3,0,7.1-5.8,6.6-7.7C121.5,28,120.7,28.3,119.9,28.3z"/>
	<path id="XMLID_58_" style="fill:#FFFFFF;" d="M33.1,28.3c-1.3,0-1.9-0.8-1.9-2c0-1,0-15,0-15c0-4-1.5-9.4-8.1-9.4H1.3v23.1v9.4
		c6.6,0,8.1-4.6,8.1-8.1l0-20.3h8.1c4.4,0,5.6,3.4,5.6,6.8c0,2.5,0,16.2,0,16.2c0,5.5,5.4,5.5,5.4,5.5c6.3,0,7.1-5.8,6.6-7.7
		C34.8,28,34,28.3,33.1,28.3z"/>
	<path id="XMLID_57_" style="fill:#FFFFFF;" d="M194,26.9c-0.3,1-1.1,1.4-1.9,1.4c-1.3,0-1.9-0.8-1.9-2c0-0.6,0-10.1,0-17.1
		c0,0,0-5.7,0-7.2c-4.7,0-8.1,3-8.1,8.1l0,13.5c0,4.6-3.6,6.7-7.5,6.7c-5.3,0-8.7-2.5-8.7-6.8c0,0,0-7.5,0-14.4c0,0,0-5.7,0-7.2
		c-4.7,0-8.1,3-8.1,8.1c0,0,0,6.6,0,10.9c0,5.5,1.7,13.5,16.2,13.5c0,0,5.5,0.2,9.3-1.9c1.6,1.9,4.2,1.9,4.2,1.9
		C193.7,34.6,194.5,28.8,194,26.9z"/>
	<path id="XMLID_56_" style="fill:#FFFFFF;" d="M97,8.3c0,0-2.3,5.9-4.1,10.5c-1.8,4.6-1.7,9.1,0.2,11.4c-1.4-0.5-2.5-2.7-3-3.8l0,0
		c-0.8-1.9-7.1-18.1-7.1-18.1c-1.6-3.9-4-7-9.3-6.3c3.2,8.2,7.3,19.4,11.1,29.3c0.4,0.9,2.1,3.2,5.3,3.2l-0.1,0c3.2,0,5-2.2,5.3-3.2
		c3.8-10,7.9-21.2,11.1-29.3C101,1.3,98.6,4.4,97,8.3z"/>
	<path id="XMLID_55_" style="fill:#FFFFFF;" d="M140.8,6.1h4.4c3.7,0,8.3-1.2,8.3-4.1l-15.7,0c-5.2,0-13.5,2.1-13.5,16.3
		c0,12,9.1,16.4,15.9,16.4c5.7,0,11.8-1.7,13.2-7.7c0,0-2.1,0-3.2,0c-1.3,3.3-5.4,3.5-9.5,3.5c-8.7,0-8.3-8.3-8.3-12.2
		C132.5,9.4,137.1,6.1,140.8,6.1z"/>
	<path id="XMLID_54_" style="fill:#FFFFFF;" d="M219.3,14.6h3.1c2.7,0,5.9-0.9,5.9-2.9l-11.1,0c-3.7,0-9.5,1.5-9.5,11.5
		c0,8.5,6.4,11.6,11.3,11.6c4,0,8.4-1.2,9.3-5.4c0,0-1.5,0-2.3,0c-0.9,2.3-3.8,2.5-6.7,2.5c-6.2,0-5.9-5.9-5.9-8.6
		C213.3,16.9,216.6,14.6,219.3,14.6z"/>
	<g id="XMLID_51_">
		<path id="XMLID_52_" style="fill:#FFFFFF;" d="M198.3,31.6c0-0.3,0.1-0.7,0.2-1s0.3-0.6,0.5-0.8c0.2-0.2,0.5-0.4,0.8-0.5
			c0.3-0.1,0.7-0.2,1-0.2c0.3,0,0.7,0.1,1,0.2c0.3,0.1,0.6,0.3,0.8,0.5c0.2,0.2,0.4,0.5,0.5,0.8c0.1,0.3,0.2,0.6,0.2,1
			c0,0.4-0.1,0.7-0.2,1c-0.1,0.3-0.3,0.6-0.5,0.8c-0.2,0.2-0.5,0.4-0.8,0.5c-0.3,0.1-0.6,0.2-1,0.2c-0.4,0-0.7-0.1-1-0.2
			c-0.3-0.1-0.6-0.3-0.8-0.5c-0.2-0.2-0.4-0.5-0.5-0.8C198.4,32.3,198.3,31.9,198.3,31.6z"/>
	</g>
	<path id="XMLID_50_" style="fill:#FFFFFF;" d="M243.9,14.6c0.3,0,2,0.1,3.2,0.9c1.4,0.9,1.8,2,2.2,3.3c0.6,1.8,0.4,9.2,0.4,9.2
		s5,0.4,5.4-5.6c0.4-6-4.2-11-11.6-10.7c-7.6,0.2-11.2,6-11.1,11.4c0.2,5.5,2.6,11,11,11.6c0,0,7.4,0.6,10.7-5.7
		c0,0-1.9,2.1-7.9,2.7c-6.2,0.5-7.9-1.9-8-7.8C238,17.9,239,14.9,243.9,14.6z"/>
</g>
<g>
</g>
<g>
</g>
<g>
</g>
<g>
</g>
<g>
</g>
<g>
</g>
</svg>
