<?xml version="1.0" encoding="utf-8"?>
<!-- Generator: Adobe Illustrator 21.0.0, SVG Export Plug-In . SVG Version: 6.00 Build 0)  -->
<svg version="1.1" xmlns="http://www.w3.org/2000/svg" xmlns:xlink="http://www.w3.org/1999/xlink" x="0px" y="0px"
	 viewBox="0 0 14.4 17.6" style="enable-background:new 0 0 14.4 17.6;" xml:space="preserve">
<style type="text/css">
	.st0{fill:#EDEDED;}
	.st1{fill:#F5F5F5;}
	.st2{fill:#391860;}
	.st3{fill:#F2F2F2;}
	.st4{fill:none;stroke:#DADADA;stroke-width:0.5;stroke-miterlimit:10;}
	.st5{fill:#3C5A94;}
	.st6{fill:#FFFFFF;}
	.st7{fill:#2E4C7C;}
	.st8{fill:#FFFFFF;stroke:#EDEDED;stroke-width:0.5;stroke-miterlimit:10;}
	.st9{fill:#B5B5B5;}
	.st10{fill:#DB4B39;}
	.st11{fill:#BA4031;}
	.st12{fill:#808080;}
	.st13{fill:#9364CC;}
	.st14{opacity:0.7;fill:#9364CC;}
	.st15{fill:#C9ABE1;}
	.st16{fill:#B2B2B2;}
	.st17{fill:#C4C4C4;}
	.st18{opacity:7.000000e-02;fill:#FFFFFF;}
	.st19{opacity:0.63;fill:#9364CC;}
	.st20{fill:#DAC5ED;}
	.st21{fill:#EDAA00;}
	.st22{fill:#FFAB00;}
	.st23{fill:#FF0200;}
	.st24{fill-rule:evenodd;clip-rule:evenodd;fill:#B2B2B2;}
	.st25{fill:#F0F0F0;}
	.st26{fill-rule:evenodd;clip-rule:evenodd;fill:#F0F0F0;}
	.st27{fill:#00529A;}
	.st28{fill:#F4AA00;}
	.st29{fill:#3F1E3B;}
	.st30{fill:none;stroke:#EDEDED;stroke-width:0.5;stroke-miterlimit:10;}
	.st31{fill:none;stroke:#783CBD;stroke-width:0.5;stroke-miterlimit:10;}
	.st32{opacity:0.48;fill:none;stroke:#783CBD;stroke-width:0.5;stroke-miterlimit:10;}
	.st33{fill:#CDAFE5;}
	.st34{fill:#783CBD;}
	.st35{fill:#B289D8;}
	.st36{fill:#F6BB47;}
	.st37{fill:#00A2DD;}
	.st38{fill:#FFD459;}
	.st39{fill:#FFC34E;}
	.st40{fill:#898989;}
	.st41{fill:#878787;}
	.st42{clip-path:url(#SVGID_2_);fill:#DB4B39;}
	.st43{clip-path:url(#SVGID_2_);fill:#BA4031;}
	.st44{clip-path:url(#SVGID_2_);}
	.st45{clip-path:url(#SVGID_4_);fill:#3C5A94;}
	.st46{clip-path:url(#SVGID_4_);}
	.st47{clip-path:url(#SVGID_4_);fill:#2E4C7C;}
	.st48{fill:none;stroke:#EDEDED;stroke-miterlimit:10;}
	.st49{fill:url(#XMLID_32_);}
	.st50{fill:#28820F;}
	.st51{fill:#5FC031;}
	.st52{fill:#0E4406;}
	.st53{fill:#F4EDF7;}
	.st54{fill:#211238;}
	.st55{fill:#62269E;}
	.st56{fill:#AEB0B2;}
	.st57{fill:#E3E4E4;}
	.st58{fill:#D5BDEA;}
	.st59{fill:none;stroke:#62269E;stroke-width:0.5;stroke-miterlimit:10;}
	.st60{fill:#E7E7E7;}
	.st61{fill:#CBADE5;}
	.st62{fill:#CBADE5;stroke:#CBADE5;stroke-width:0.25;stroke-miterlimit:10;}
	.st63{fill:#EDA900;}
	.st64{fill:#D82D5D;}
	.st65{fill:#A0227A;}
	.st66{fill:#662366;}
	.st67{clip-path:url(#SVGID_8_);fill:#FFFFFF;}
	.st68{fill:none;stroke:#EDAA00;stroke-width:0.25;stroke-miterlimit:10;}
	.st69{fill:#009A00;}
	.st70{fill:url(#SVGID_9_);}
	.st71{fill:#CB0510;}
	.st72{clip-path:url(#SVGID_13_);fill:#FFFFFF;}
	.st73{fill:url(#SVGID_14_);}
	.st74{fill:none;stroke:#C94A3F;stroke-miterlimit:10;}
	.st75{fill:#C94A3F;}
</style>
<g id="Fondos">
</g>
<g id="Escritorio">
	<path class="st34" d="M13.2,13.8c-0.8-2.2-3.1-0.5-4.1-2.5c0.7-0.6,1.3-1.6,1.7-2.7c0,0,0.1,0,0.1,0.1c0.3,0.1,0.7-0.5,0.8-1.2
		c0.2-0.8,0-1.4-0.3-1.4c-0.1,0-0.1,0-0.2,0c0-0.1,0-0.2,0-0.3c0.1-0.5,0.1-1,0-1.5C11.1,4,11,3.6,10.9,3.4c-0.1-0.2-0.2-0.6-0.3-1
		c-0.4-0.8-1.5-1.4-3.4-1.4l0,0l0,0c-1.8,0-3.1,0.6-3.4,1.4c-0.3,0.4-0.4,0.7-0.5,1C3.4,3.6,3.3,3.9,3.3,4.3c-0.1,0.5-0.1,1.1,0,1.5
		c0,0.1,0,0.2,0,0.3c-0.1,0-0.1,0-0.2,0c-0.4,0-0.5,0.6-0.5,1.4c0.2,0.7,0.5,1.3,0.8,1.2c0.1,0,0.1,0,0.1-0.1c0.5,1.1,1,2.1,1.8,2.7
		c-1.1,2.1-3.3,0.3-4.1,2.5c-0.4,1-0.5,2-0.4,2.8h6.4h6.4C13.7,15.8,13.6,14.8,13.2,13.8z"/>
</g>
<g id="Fijos">
</g>
<g id="Estilos">
</g>
</svg>
