<?xml version="1.0" encoding="utf-8"?>
<!-- Generator: Adobe Illustrator 21.0.0, SVG Export Plug-In . SVG Version: 6.00 Build 0)  -->
<svg version="1.1" id="Capa_1" xmlns="http://www.w3.org/2000/svg" xmlns:xlink="http://www.w3.org/1999/xlink" x="0px" y="0px"
	 viewBox="0 0 31 24" style="enable-background:new 0 0 31 24;" xml:space="preserve">
<style type="text/css">
	.st0{fill:#EDAA00;}
	.st1{fill:#62269E;}
	.st2{fill:#DAC4EC;}
	.st3{fill:#D8D9DA;}
	.st4{opacity:0.37;fill:#9D9D9C;}
	.st5{fill:#DCB9FA;}
	.st6{fill:#9364CC;}
	.st7{fill:#783CBD;}
</style>
<g>
	<path class="st3" d="M3.4,7.5c0.4,0.3,1.5,1.1,3.4,2.4s3.4,2.3,4.4,3.1c0.1,0.1,0.4,0.2,0.7,0.5c0.4,0.3,0.7,0.4,0.9,0.7
		c0.2,0.1,0.5,0.4,0.9,0.5c0.4,0.2,0.7,0.4,0.9,0.4s0.6,0.1,0.8,0.1l0,0l0,0c0.3,0,0.5-0.1,0.8-0.1c0.3-0.1,0.7-0.2,0.9-0.4
		c0.4-0.2,0.7-0.4,0.9-0.5c0.2-0.1,0.5-0.4,0.9-0.7c0.4-0.3,0.6-0.4,0.7-0.5c1-0.7,3.6-2.6,7.8-5.5c0.8-0.6,1.5-1.2,2-2
		c0.5-0.8,0.8-1.7,0.8-2.6c0-0.7-0.3-1.4-0.8-1.9s-1.2-0.8-1.9-0.8H3.2c-0.9,0.1-1.5,0.4-2,0.9S0.5,2.4,0.5,3.3
		c0,0.7,0.3,1.5,0.9,2.3S2.7,7,3.4,7.5z"/>
	<path class="st3" d="M28.8,9.3c-3.6,2.5-6.4,4.4-8.3,5.8c-0.7,0.4-1.2,0.8-1.5,1.1c-0.4,0.3-0.9,0.5-1.6,0.8
		c-0.7,0.3-1.2,0.4-1.8,0.4l0,0l0,0c-0.6,0-1.2-0.1-1.8-0.4c-0.7-0.3-1.2-0.5-1.6-0.8c-0.4-0.3-0.9-0.7-1.5-1.1
		C9,14,6.2,12.1,2.2,9.3C1.6,8.9,1,8.4,0.5,7.8v13.3c0,0.7,0.3,1.4,0.8,1.9c0.5,0.5,1.2,0.8,1.9,0.8h24.6c0.7,0,1.4-0.3,1.9-0.8
		c0.5-0.5,0.8-1.2,0.8-1.9V7.8C30,8.4,29.4,8.9,28.8,9.3z"/>
</g>
</svg>
