<?xml version="1.0" encoding="utf-8"?>
<!-- Generator: Adobe Illustrator 21.0.0, SVG Export Plug-In . SVG Version: 6.00 Build 0)  -->
<svg version="1.1" xmlns="http://www.w3.org/2000/svg" xmlns:xlink="http://www.w3.org/1999/xlink" x="0px" y="0px"
	 viewBox="0 0 23 23" style="enable-background:new 0 0 23 23;" xml:space="preserve">
<g id="Fondos">
</g>
<g id="Contenido">
	<path style="fill:#783CBD;" d="M11.5,1.185C5.803,1.185,1.185,5.803,1.185,11.5c0,5.697,4.618,10.315,10.315,10.315
		c5.697,0,10.315-4.618,10.315-10.315C21.815,5.803,17.197,1.185,11.5,1.185z M15.364,12.383h-2.893v3.128
		c0,0.493-0.4,0.893-0.893,0.893h-0.176c-0.493,0-0.893-0.4-0.893-0.893v-3.128H7.636c-0.493,0-0.893-0.4-0.893-0.893
		c0-0.493,0.4-0.893,0.893-0.893h2.874V7.49c0-0.493,0.4-0.893,0.893-0.893h0.176c0.493,0,0.893,0.4,0.893,0.893v3.108h2.893
		c0.493,0,0.893,0.4,0.893,0.893C16.257,11.983,15.857,12.383,15.364,12.383z"/>
</g>
<g id="Itinerario" style="display:none;">
</g>
<g id="Estilos">
</g>
<g id="Fijos">
</g>
</svg>
