<?xml version="1.0" encoding="utf-8"?>
<!-- Generator: Adobe Illustrator 21.0.0, SVG Export Plug-In . SVG Version: 6.00 Build 0)  -->
<svg version="1.1" id="Capa_1" xmlns="http://www.w3.org/2000/svg" xmlns:xlink="http://www.w3.org/1999/xlink" x="0px" y="0px"
	 viewBox="0 0 22 27" style="enable-background:new 0 0 22 27;" xml:space="preserve">
<style type="text/css">
	.st0{fill:#EDAA00;}
	.st1{fill:#62269E;}
	.st2{fill:#DAC4EC;}
	.st3{fill:#D8D9DA;}
	.st4{opacity:0.37;fill:#9D9D9C;}
	.st5{fill:#DCB9FA;}
	.st6{fill:#9364CC;}
	.st7{fill:#783CBD;}
</style>
<path class="st0" d="M18.3,19.3c1.8,0,3.3-1.5,3.3-3.3s-1.5-3.3-3.3-3.3h-0.4c-1.5-2.9-4.5-4.9-8-4.9H8.8l-2-5.3
	C6.3,1.2,5,0.3,3.7,0.3c-0.4,0-0.8,0.1-1.2,0.2C0.8,1.2,0,3.1,0.6,4.8l4.7,12.3c0.5,1.3,1.8,2.2,3.2,2.2h2.7v5.4H7.5
	c-0.5,0-0.8,0.4-0.8,0.8v0.3c0,0.5,0.4,0.8,0.8,0.8h10.1c0.5,0,0.8-0.4,0.8-0.8v-0.3c0-0.5-0.4-0.8-0.8-0.8H14v-5.4H18.3z M9.9,9.4
	c2.5,0,4.8,1.3,6.1,3.3h-5.4L9.4,9.4H9.9z"/>
</svg>
