<?xml version="1.0" encoding="utf-8"?>
<!-- Generator: Adobe Illustrator 21.0.0, SVG Export Plug-In . SVG Version: 6.00 Build 0)  -->
<svg version="1.1" id="Capa_1" xmlns="http://www.w3.org/2000/svg" xmlns:xlink="http://www.w3.org/1999/xlink" x="0px" y="0px"
	 viewBox="0 0 31 37" style="enable-background:new 0 0 31 37;" xml:space="preserve">
<style type="text/css">
	.st0{fill:#EDAA00;}
	.st1{fill:#62269E;}
	.st2{fill:#DAC4EC;}
</style>
<path class="st2" d="M29.5,30.2c-1.6-4.7-6.2-1.7-8.9-4.8c-0.4-0.5-0.4-1.2,0-1.7c1.3-1.4,2.4-3.4,3.2-5.5l0.2,0.2
	c0.7,0.2,1.6-1.1,1.8-2.8c0.4-1.8,0-3.2-0.7-3.2h-0.4v-0.7c0.2-1.1,0.2-2.3,0-3.5c-0.2-0.7-0.4-1.6-0.5-2.1
	c-0.2-0.5-0.4-1.4-0.7-2.3c-0.9-1.9-3.5-3.4-7.8-3.4c-4.2,0-7.1,1.4-7.8,3.4C7.2,4.5,7,5.2,6.8,5.9C6.7,6.5,6.5,7.2,6.5,8.1
	c-0.2,1.2-0.2,2.5,0,3.5v0.7H6.1c-0.9,0-1.2,1.4-1.1,3.2c0.4,1.6,1.1,3,1.8,2.8L7,18.1c0.9,2.1,1.9,4.1,3.3,5.5
	c0.4,0.5,0.5,1.2,0,1.7c-2.6,3.1-7.1,0.1-8.9,4.8c-0.7,1.8-1,3.6-0.9,5.2c0,0.7,0.6,1.3,1.3,1.3h13.6h13.6c0.7,0,1.3-0.6,1.3-1.3
	C30.4,33.8,30.2,32,29.5,30.2z"/>
</svg>
