<?xml version="1.0" encoding="utf-8"?>
<!-- Generator: Adobe Illustrator 21.0.0, SVG Export Plug-In . SVG Version: 6.00 Build 0)  -->
<svg version="1.1" id="Capa_1" xmlns="http://www.w3.org/2000/svg" xmlns:xlink="http://www.w3.org/1999/xlink" x="0px" y="0px"
	 viewBox="0 0 51 23" enable-background="new 0 0 51 23" xml:space="preserve">
<path fill="#54284E" d="M50.5,11.9c0-0.1,0-0.3-0.1-0.4l-0.2-0.6c-0.2-0.8-0.7-1.4-1.4-1.8l0,0c-0.1,0-0.2-0.1-0.2-0.1
	C48.6,9,48.6,9,48.5,9c-0.3-0.1-0.5-0.2-0.8-0.2l-5.6-0.5l0,0l-1.5-0.1c-1.9-0.2-3.9,0-5.7,0.5l-2.5,0.7L19.2,0.6
	c-0.4-0.3-0.9-0.3-1.4-0.2c-1.1,0.3-1.6,1.6-1,2.6l5.9,9l-8.6,2.3l-3.8-2.5l0,0L9.2,11L3.1,7C2.7,6.8,2.2,6.7,1.8,6.8
	c-1.1,0.3-1.6,1.6-1,2.6l4.4,7.2l-1,0.3c-0.8,0.2-1.2,1-1,1.8c0.2,0.6,0.6,1.1,1.1,1.4c1.8,0.7,3.7,1.3,5.6,1.7l0,0l0,0c0,0,0,0,0,0
	c0.1,0,0.1,0,0.2,0c0.7,0.2,1.4,0.3,2.2,0.4l0,0c0.5,0.1,1,0.1,1.5,0.2c0.3,0,0.6,0.1,0.9,0.1c1.3,0.1,2.6,0.2,3.9,0.2c0,0,0,0,0,0
	c1.3,0,2.6-0.1,3.9-0.3c0.3,0,0.6-0.1,1-0.1c1.3-0.2,2.6-0.4,3.8-0.8L40,18c2.6-0.7,5-1.6,7.4-2.9l1.9-1
	C50.1,13.7,50.6,12.8,50.5,11.9L50.5,11.9z"/>
</svg>
