<?xml version="1.0" encoding="utf-8"?>
<!-- Generator: Adobe Illustrator 21.0.0, SVG Export Plug-In . SVG Version: 6.00 Build 0)  -->
<svg version="1.1" xmlns="http://www.w3.org/2000/svg" xmlns:xlink="http://www.w3.org/1999/xlink" x="0px" y="0px"
	 viewBox="0 0 36 29" style="enable-background:new 0 0 36 29;" xml:space="preserve">
<g id="Fondos">
</g>
<g id="Contenido">
	<g>
		<path style="fill:#EDAA00;" d="M24.249,1.936c-0.474-0.488-0.971-0.735-1.478-0.735h-0.086c-0.493,0-0.978,0.235-1.441,0.698
			c-1.022,1.022-1.674,2.917-1.641,4.045c0.024,0.816,0.066,1.811,0.124,2.917l-8.195,5.245c-0.071,0.045-0.141,0.102-0.206,0.168
			c-0.284,0.284-0.475,0.718-0.475,1.078l0,1.643c0,0.264,0.109,0.491,0.299,0.623c0.19,0.132,0.441,0.153,0.688,0.06l8.265-3.124
			c0.113,1.436,0.242,2.881,0.383,4.246c0.098,0.95,0.199,1.827,0.302,2.632l-3.68,3.011c-0.203,0.165-0.356,0.491-0.356,0.751v1.08
			c0,0.173,0.073,0.328,0.201,0.425c0.128,0.098,0.297,0.128,0.463,0.082l4.08-1.113c0.44,1.855,0.83,2.133,1.188,2.133h0.086
			c0.149,0,0.29-0.064,0.417-0.192c0.271-0.271,0.523-0.953,0.756-1.918l3.995,1.089c0.191,0.052,0.382,0.005,0.513-0.126
			c0.098-0.098,0.152-0.234,0.152-0.382l0-1.08c0-0.262-0.153-0.585-0.356-0.751l-3.59-2.937c0.276-2.133,0.508-4.572,0.692-6.915
			l8.168,3.087c0.292,0.111,0.583,0.06,0.778-0.135c0.135-0.135,0.21-0.33,0.21-0.548l0-1.643c0-0.454-0.299-1.001-0.682-1.245
			l-8.101-5.185c0.065-1.229,0.109-2.261,0.13-2.977C25.885,4.843,25.281,2.999,24.249,1.936z"/>
		<path style="fill:#EDAA00;" d="M9.12,20.425c-0.331-0.332-0.709-0.605-1.122-0.818l0-4.117H7.996l0.001-6.097
			c1.479-0.762,2.426-2.298,2.425-3.969c0-1.19-0.464-2.309-1.305-3.15c-0.47-0.47-1.047-0.834-1.671-1.056
			C7.353,1.186,7.249,1.2,7.167,1.258c-0.081,0.058-0.129,0.151-0.13,0.251L7.037,5.424c0,0.289-0.112,0.56-0.315,0.764
			C6.518,6.392,6.247,6.503,5.958,6.503C5.382,6.504,4.879,6.001,4.88,5.424L4.88,1.508c0-0.1-0.05-0.194-0.129-0.25
			C4.669,1.2,4.565,1.185,4.471,1.219c-1.781,0.63-2.977,2.32-2.977,4.206c0,1.19,0.463,2.31,1.305,3.152
			C3.13,8.908,3.507,9.181,3.92,9.394l0.001,6.096H3.92l0,4.117c-1.478,0.762-2.425,2.297-2.425,3.968
			c0,1.19,0.464,2.309,1.305,3.15c0.47,0.47,1.048,0.834,1.672,1.055c0.094,0.033,0.198,0.019,0.279-0.039
			c0.082-0.058,0.129-0.151,0.13-0.251l0.001-3.916c0-0.288,0.111-0.559,0.315-0.763c0.204-0.204,0.475-0.316,0.764-0.315
			C6.537,22.497,7.039,23,7.038,23.576l0,3.916c0,0.1,0.048,0.192,0.13,0.251c0.082,0.057,0.185,0.072,0.279,0.039
			c1.78-0.63,2.977-2.32,2.977-4.206C10.425,22.385,9.961,21.266,9.12,20.425z"/>
	</g>
</g>
<g id="Itinerario" style="display:none;">
</g>
<g id="Estilos">
</g>
<g id="Fijos">
</g>
</svg>
