<?xml version="1.0" encoding="utf-8"?>
<!-- Generator: Adobe Illustrator 21.0.0, SVG Export Plug-In . SVG Version: 6.00 Build 0)  -->
<svg version="1.1" xmlns="http://www.w3.org/2000/svg" xmlns:xlink="http://www.w3.org/1999/xlink" x="0px" y="0px"
	 viewBox="0 0 20 31" style="enable-background:new 0 0 20 31;" xml:space="preserve">
<g id="Fondos">
</g>
<g id="Contenido">
	<g>
		<polygon style="fill:#C6C6C6;" points="5.354,2.424 14.636,2.422 14.636,3.159 15.9,3.16 15.9,1.156 4.088,1.159 4.088,3.163 
			5.353,3.162 		"/>
		<path style="fill:#C6C6C6;" d="M18.619,7.378c0-0.699-0.566-1.267-1.264-1.267h-1.45l-0.002-1.792h-1.266l0.002,1.792L5.357,6.114
			L5.356,4.321L4.092,4.322v1.792H2.641C1.942,6.115,1.376,6.682,1.376,7.38l0.008,19.933c-0.001,0.698,0.566,1.265,1.265,1.265
			h1.24l-0.001,0.369c0,0.497,0.4,0.897,0.898,0.897c0.495,0,0.894-0.4,0.894-0.897v-0.369l8.648-0.003v0.37
			c0.002,0.496,0.399,0.897,0.897,0.897c0.496,0,0.894-0.4,0.895-0.897l-0.001-0.369h1.241c0.698-0.001,1.265-0.567,1.265-1.266
			L18.619,7.378z"/>
	</g>
</g>
<g id="Itinerario" style="display:none;">
</g>
<g id="Estilos">
</g>
<g id="Fijos">
</g>
</svg>
