<?xml version="1.0" encoding="utf-8"?>
<!-- Generator: Adobe Illustrator 21.0.0, SVG Export Plug-In . SVG Version: 6.00 Build 0)  -->
<svg version="1.1" id="Capa_1" xmlns="http://www.w3.org/2000/svg" xmlns:xlink="http://www.w3.org/1999/xlink" x="0px" y="0px"
	 viewBox="0 0 52 25" enable-background="new 0 0 52 25" xml:space="preserve">
<path fill="#54284E" d="M2.5,18.8c-0.6,0.2-0.9,0.7-0.9,1.3L2,23.7c0.1,0.7,0.7,1.2,1.4,1.1l39.8-4L43,19.4l1.3-0.1l0.1,1.3l6.3-0.6
	c0.7-0.1,1.2-0.7,1.1-1.4L50,1.3c-0.1-0.7-0.7-1.2-1.4-1.1l-6.3,0.6l0.1,1.3l-1.3,0.1L41.1,1L1.3,5C0.7,5,0.2,5.6,0.2,6.3l0.4,3.5
	c0.1,0.6,0.5,1,1.1,1.1c1.8,0.3,3.3,1.7,3.5,3.6C5.4,16.5,4.2,18.2,2.5,18.8z M41.5,4.8l1.3-0.1l0.2,2.4l-1.3,0.1L41.5,4.8z M42,9.8
	l1.3-0.1l0.2,2.4l-1.3,0.1L42,9.8z M42.5,14.7l1.3-0.1L44,17l-1.3,0.1L42.5,14.7z"/>
</svg>
