<?xml version="1.0" encoding="utf-8"?>
<!-- Generator: Adobe Illustrator 21.0.0, SVG Export Plug-In . SVG Version: 6.00 Build 0)  -->
<svg version="1.1" xmlns="http://www.w3.org/2000/svg" xmlns:xlink="http://www.w3.org/1999/xlink" x="0px" y="0px"
	 viewBox="0 0 26.9 25.3" style="enable-background:new 0 0 26.9 25.3;" xml:space="preserve">
<style type="text/css">
	.st0{fill:#F5F5F5;}
	.st1{fill:#461839;}
	.st2{fill:#FFFFFF;}
	.st3{fill:#DADADA;}
	.st4{clip-path:url(#SVGID_2_);fill:#CCCCCC;}
	.st5{clip-path:url(#SVGID_2_);fill:#D9D9D9;}
	.st6{fill:#ECECEC;}
	.st7{fill:#EEEEEE;}
	.st8{fill:#FFAC00;}
	.st9{fill:#FF0000;}
	.st10{fill:#B2B2B2;}
	.st11{fill-rule:evenodd;clip-rule:evenodd;fill:#B2B2B2;}
	.st12{fill:#EFEFEF;}
	.st13{fill-rule:evenodd;clip-rule:evenodd;fill:#EFEFEF;}
	.st14{fill:#00519D;}
	.st15{fill:#FFAB00;}
	.st16{fill:#FFFFFF;stroke:#EDEDED;stroke-width:0.5;stroke-miterlimit:10;}
	.st17{fill:#54284E;}
	.st18{fill:#EDAA00;}
	.st19{fill:#B5B5B5;}
	.st20{fill:none;stroke:#EDEDED;stroke-width:0.5;stroke-miterlimit:10;}
	.st21{fill:#898989;}
	.st22{clip-path:url(#SVGID_4_);fill:#CCCCCC;}
	.st23{clip-path:url(#SVGID_4_);fill:#D9D9D9;}
	.st24{clip-path:url(#SVGID_6_);}
	.st25{clip-path:url(#SVGID_8_);}
	.st26{fill:url(#SVGID_9_);}
	.st27{fill:none;stroke:#C6C6C6;stroke-width:0.25;stroke-miterlimit:10;}
	.st28{filter:url(#Adobe_OpacityMaskFilter);}
	.st29{mask:url(#b_1_);fill:#B2B2B2;}
	.st30{clip-path:url(#SVGID_41_);fill:#CCCCCC;}
	.st31{clip-path:url(#SVGID_41_);fill:#D9D9D9;}
	.st32{clip-path:url(#SVGID_45_);}
	.st33{clip-path:url(#SVGID_47_);}
	.st34{fill:url(#SVGID_48_);}
	.st35{fill:#602E5B;}
	.st36{fill:#75386F;}
	.st37{fill:none;stroke:#DADADA;stroke-width:0.5;stroke-miterlimit:10;}
	.st38{clip-path:url(#SVGID_80_);fill:#CCCCCC;}
	.st39{clip-path:url(#SVGID_80_);fill:#D9D9D9;}
	.st40{clip-path:url(#SVGID_82_);fill:#CCCCCC;}
	.st41{clip-path:url(#SVGID_82_);fill:#D9D9D9;}
	.st42{fill:#391860;}
	.st43{fill:#783CBD;}
	.st44{fill:none;stroke:#783CBD;stroke-width:0.5;stroke-miterlimit:10;}
	.st45{opacity:0.48;fill:none;stroke:#783CBD;stroke-width:0.5;stroke-miterlimit:10;}
	.st46{fill:#DAC5ED;}
	.st47{fill:#CDAFE5;}
	.st48{fill:#B289D8;}
	.st49{fill:#EDEDED;}
	.st50{fill:#F2F2F2;}
	.st51{fill:#3C5A94;}
	.st52{fill:#2E4C7C;}
	.st53{fill:#DB4B39;}
	.st54{fill:#BA4031;}
	.st55{fill:#808080;}
	.st56{fill:#9364CC;}
	.st57{opacity:0.7;fill:#9364CC;}
	.st58{fill:#C9ABE1;}
	.st59{fill:#C4C4C4;}
	.st60{fill:#F4EBF8;}
	.st61{fill:none;stroke:#DADADA;stroke-width:0.25;stroke-miterlimit:10;}
	.st62{fill:url(#XMLID_16_);}
	.st63{fill:#28820F;}
	.st64{fill:#5FC031;}
	.st65{fill:#0E4406;}
	.st66{clip-path:url(#SVGID_84_);fill:#CCCCCC;}
	.st67{clip-path:url(#SVGID_84_);fill:#D9D9D9;}
	.st68{fill:url(#XMLID_17_);}
	.st69{fill:#EDA900;}
	.st70{fill:#D82D5D;}
	.st71{fill:#B52372;}
	.st72{fill:#662366;}
	.st73{clip-path:url(#SVGID_86_);fill:#FFFFFF;}
	.st74{fill:none;stroke:#EDAA00;stroke-width:0.25;stroke-miterlimit:10;}
	.st75{clip-path:url(#SVGID_88_);fill:#FFFFFF;}
	.st76{fill:#F2EFF4;}
	.st77{fill:#211238;}
	.st78{fill:#C4C5C6;}
	.st79{fill:#9E9E9E;}
	.st80{fill:#CBADE5;}
	.st81{fill:#CBADE5;stroke:#CBADE5;stroke-width:0.25;stroke-miterlimit:10;}
	.st82{fill:#62269E;}
	.st83{fill:none;stroke:#FFFFFF;stroke-width:0.25;stroke-miterlimit:10;}
	.st84{fill:none;stroke:#62269E;stroke-width:0.5;stroke-miterlimit:10;}
	.st85{fill:#DFE0E0;}
	.st86{fill:#E3E3E3;}
	.st87{fill:#F9F3FB;}
	.st88{fill:#EDC04E;}
	.st89{opacity:0.29;}
	.st90{fill:none;stroke:#E73E51;stroke-miterlimit:10;}
	.st91{fill:#E73E51;}
</style>
<g id="Fondos">
</g>
<g id="Escritorio">
</g>
<g id="Fijos">
</g>
<g id="Modal">
	<g>
		<path class="st88" d="M7.5,22.4c-0.2,0.1-0.3,0.3-0.2,0.6l0.4,1.3c0.1,0.3,0.3,0.4,0.6,0.3l14.9-4.3L23,19.9l0.5-0.1l0.1,0.5
			l2.3-0.7c0.3-0.1,0.4-0.3,0.3-0.6l-1.9-6.5c-0.1-0.3-0.3-0.4-0.6-0.3l-2.3,0.7l0.1,0.5l-0.5,0.1L21,13L6.1,17.2
			c-0.3,0.1-0.4,0.3-0.3,0.6l0.4,1.3c0.1,0.2,0.3,0.4,0.5,0.3c0.7,0,1.4,0.4,1.6,1.1C8.5,21.3,8.1,22.1,7.5,22.4z M21.4,14.4
			l0.5-0.1l0.3,0.9l-0.5,0.1L21.4,14.4z M21.9,16.3l0.5-0.1l0.3,0.9l-0.5,0.1L21.9,16.3z M22.5,18.1L23,18l0.3,0.9L22.7,19
			L22.5,18.1z"/>
		<path class="st88" d="M18.4,2.7c0.2-0.1,0.2-0.4,0.1-0.6l-0.6-1.2c-0.1-0.2-0.4-0.3-0.6-0.2L3.5,7.7l0.2,0.5L3.3,8.4L3.1,7.9
			L0.9,9.1C0.7,9.2,0.6,9.5,0.7,9.7l3.1,6c0.1,0.2,0.4,0.3,0.6,0.2l2.2-1.1l-0.2-0.4l0.4-0.2L7,14.6l13.8-7.1
			C21,7.4,21.1,7.1,21,6.9l-0.6-1.2c-0.1-0.2-0.3-0.3-0.6-0.2c-0.7,0.2-1.4-0.2-1.8-0.8C17.7,3.9,17.9,3.1,18.4,2.7z M6.3,13.2
			l-0.4,0.2l-0.4-0.8l0.4-0.2L6.3,13.2z M5.5,11.5L5,11.7l-0.4-0.8L5,10.7L5.5,11.5z M4.6,9.8L4.1,10L3.7,9.2L4.2,9L4.6,9.8z"/>
	</g>
</g>
<g id="Estilos">
</g>
</svg>
