<?xml version="1.0" encoding="utf-8"?>
<!-- Generator: Adobe Illustrator 21.0.0, SVG Export Plug-In . SVG Version: 6.00 Build 0)  -->
<svg version="1.1" id="Capa_1" xmlns="http://www.w3.org/2000/svg" xmlns:xlink="http://www.w3.org/1999/xlink" x="0px" y="0px"
	 viewBox="0 0 33 43" enable-background="new 0 0 33 43" xml:space="preserve">
<path fill="#D8D9DA" d="M29.4,17.5L29.4,17.5l-0.1-4.1c0-7.1-5.8-13.1-12.9-13C9.5,0.5,3.9,6.1,3.9,13.1v0.4c0,0.6,0.5,1.1,1.1,1.1
	h3.4c0.6,0,1.1-0.5,1.1-1.1v-0.1c0-3.8,2.9-7.2,6.7-7.4c4.1-0.3,7.6,3,7.6,7.1v4.4H13.2v0H3.5c-1.8,0.1-3.3,1.5-3.3,3.3v18.5
	c0,1.8,1.5,3.3,3.3,3.3h25.8c1.8,0,3.3-1.5,3.3-3.3V20.8C32.7,19,31.2,17.5,29.4,17.5z M18.5,30.9c-0.3,0.2-0.3,0.4-0.3,0.7
	c0,1.4,0,2.7,0,4.1l0,0c0,0.6-0.3,1.1-0.8,1.4c-1.2,0.6-2.4-0.2-2.4-1.4c0,0,0,0,0,0c0-1.4,0-2.7,0-4.1c0-0.3-0.1-0.5-0.3-0.6
	c-1.2-0.9-1.6-2.4-1-3.8c0.6-1.3,2.1-2.1,3.4-1.8c1.5,0.3,2.6,1.5,2.6,3.1C19.8,29.4,19.4,30.3,18.5,30.9z"/>
</svg>
