<?xml version="1.0" encoding="utf-8"?>
<!-- Generator: Adobe Illustrator 17.0.0, SVG Export Plug-In . SVG Version: 6.00 Build 0)  -->
<!DOCTYPE svg PUBLIC "-//W3C//DTD SVG 1.1//EN" "http://www.w3.org/Graphics/SVG/1.1/DTD/svg11.dtd">
<svg version="1.1" id="Capa_1" xmlns="http://www.w3.org/2000/svg" xmlns:xlink="http://www.w3.org/1999/xlink" x="0px" y="0px"
	 width="14.167px" height="12.383px" viewBox="0 0 14.167 12.383" enable-background="new 0 0 14.167 12.383" xml:space="preserve">
<g>
	<path fill="#808080" d="M5.63,12.06c0,0.179-0.145,0.324-0.324,0.324H0.452c-0.179,0-0.324-0.145-0.324-0.324V4.292
		c0-0.179,0.145-0.324,0.324-0.324h4.855c0.179,0,0.324,0.145,0.324,0.324V12.06z"/>
	<polygon fill="#FFFFFF" points="5.307,4.94 5.307,4.94 0.452,4.94 0.452,4.292 5.307,4.292 	"/>
	<polygon fill="#FFFFFF" points="5.307,5.911 5.307,5.911 0.452,5.911 0.452,5.263 5.307,5.263 	"/>
	<polygon fill="#FFFFFF" points="5.307,6.882 5.307,6.882 0.452,6.882 0.452,6.234 5.307,6.234 	"/>
	<polygon fill="#FFFFFF" points="5.307,7.852 5.307,7.852 0.452,7.852 0.452,7.205 5.307,7.205 	"/>
	<polygon fill="#FFFFFF" points="5.307,8.823 5.307,8.823 0.452,8.823 0.452,8.176 5.307,8.176 	"/>
	<polygon fill="#FFFFFF" points="5.307,9.794 5.307,9.794 0.452,9.794 0.452,9.147 5.307,9.147 	"/>
	<rect x="1.099" y="3.969" fill="#808080" width="0.324" height="7.444"/>
	<rect x="2.07" y="3.969" fill="#808080" width="0.324" height="7.444"/>
	<rect x="2.07" y="3.969" fill="#808080" width="3.236" height="6.473"/>
	<path fill="#808080" d="M8.219,12.06c0,0.179-0.145,0.324-0.324,0.324H3.041c-0.179,0-0.324-0.145-0.324-0.324V0.409
		c0-0.179,0.145-0.324,0.324-0.324h4.855c0.179,0,0.324,0.145,0.324,0.324V12.06z"/>
	<polygon fill="#FFFFFF" points="7.896,1.056 7.896,1.056 3.041,1.056 3.041,0.409 7.896,0.409 	"/>
	<polygon fill="#FFFFFF" points="7.896,2.027 7.896,2.027 3.041,2.027 3.041,1.38 7.896,1.38 	"/>
	<polygon fill="#FFFFFF" points="7.896,2.998 7.896,2.998 3.041,2.998 3.041,2.351 7.896,2.351 	"/>
	<polygon fill="#FFFFFF" points="7.896,3.969 7.896,3.969 3.041,3.969 3.041,3.321 7.896,3.321 	"/>
	<polygon fill="#FFFFFF" points="7.896,4.94 7.896,4.94 3.041,4.94 3.041,4.292 7.896,4.292 	"/>
	<polygon fill="#FFFFFF" points="7.896,5.911 7.896,5.911 3.041,5.911 3.041,5.263 7.896,5.263 	"/>
	<polygon fill="#FFFFFF" points="7.896,6.882 7.896,6.882 3.041,6.882 3.041,6.234 7.896,6.234 	"/>
	<polygon fill="#FFFFFF" points="7.896,7.852 7.896,7.852 3.041,7.852 3.041,7.205 7.896,7.205 	"/>
	<polygon fill="#FFFFFF" points="7.896,8.823 7.896,8.823 3.041,8.823 3.041,8.176 7.896,8.176 	"/>
	<rect x="5.307" y="0.085" fill="#808080" width="0.324" height="9.062"/>
	<rect x="4.012" y="0.085" fill="#808080" width="0.324" height="9.062"/>
	<rect x="6.601" y="0.085" fill="#808080" width="0.324" height="9.062"/>
	<path fill="#808080" d="M14.045,12.06c0,0.179-0.145,0.324-0.324,0.324H8.867c-0.179,0-0.324-0.145-0.324-0.324V4.292
		c0-0.179,0.145-0.324,0.324-0.324h4.855c0.179,0,0.324,0.145,0.324,0.324V12.06z"/>
	<polygon fill="#FFFFFF" points="13.721,4.94 13.721,4.94 8.867,4.94 8.867,4.292 13.721,4.292 	"/>
	<polygon fill="#FFFFFF" points="13.721,5.911 13.721,5.911 8.867,5.911 8.867,5.263 13.721,5.263 	"/>
	<polygon fill="#FFFFFF" points="13.721,6.882 13.721,6.882 8.867,6.882 8.867,6.234 13.721,6.234 	"/>
	<polygon fill="#FFFFFF" points="13.721,7.852 13.721,7.852 8.867,7.852 8.867,7.205 13.721,7.205 	"/>
	<polygon fill="#FFFFFF" points="13.721,8.823 13.721,8.823 8.867,8.823 8.867,8.176 13.721,8.176 	"/>
	<polygon fill="#FFFFFF" points="13.721,9.794 13.721,9.794 8.867,9.794 8.867,9.147 13.721,9.147 	"/>
	<rect x="9.514" y="3.969" fill="#808080" width="0.324" height="7.444"/>
	<rect x="10.485" y="3.969" fill="#808080" width="0.324" height="7.444"/>
</g>
</svg>
