<?xml version="1.0" encoding="utf-8"?>
<!-- Generator: Adobe Illustrator 21.0.0, SVG Export Plug-In . SVG Version: 6.00 Build 0)  -->
<svg version="1.1" id="Capa_1" xmlns="http://www.w3.org/2000/svg" xmlns:xlink="http://www.w3.org/1999/xlink" x="0px" y="0px"
	 viewBox="0 0 19 15" style="enable-background:new 0 0 19 15;" xml:space="preserve">
<style type="text/css">
	.st0{fill:#ACADAF;}
	.st1{fill:#572A99;}
	.st2{fill:#8764C8;}
</style>
<g>
	<g>
		<path class="st0" d="M15.9,14.5L15.9,14.5l-9.6,0c-1.3,0-2.3-1-2.3-2.3c0-1.3,1-2.3,2.3-2.3c0.2,0,0.3,0,0.5,0
			c0.1-2.2,1.9-4,4.2-4c1.8,0,3.3,1.1,3.9,2.7c0.2-0.1,0.5-0.1,0.8-0.1c1.7,0,3,1.4,3,3C18.7,13.1,17.5,14.4,15.9,14.5z M7.9,3.6
			c1.2,0.2,2.2,0.9,2.8,1.8c-2.2,0.2-3.9,1.8-4.3,4c0,0,0,0-0.1,0c-0.8,0-1.5,0.3-2,0.8c-0.8-0.9-1.2-2.1-1-3.3
			C3.7,4.7,5.7,3.2,7.9,3.6z M11.2,5.4C10.5,4.2,9.4,3.3,8,3.1C5.5,2.7,3.3,4.4,2.9,6.8C2.7,8.2,3.1,9.6,4,10.5
			c-0.2,0.2-0.3,0.5-0.4,0.7C3,11.4,1.9,12,1.6,11.6c-0.4-0.5,1.3-1.8,1.1-2.4c-0.2-0.6-2.3-0.4-2.4-1c-0.1-0.6,2-0.9,2.1-1.5
			c0.1-0.6-1.8-1.5-1.6-2.1c0.2-0.6,2.2,0.2,2.6-0.3c0.4-0.5-0.8-2.2-0.3-2.6c0.5-0.4,1.8,1.3,2.4,1.1c0.6-0.2,0.4-2.3,1-2.4
			c0.6-0.1,0.9,2,1.5,2.1c0.6,0.1,1.5-1.8,2.1-1.6c0.6,0.2-0.2,2.2,0.2,2.6c0.5,0.4,2.2-0.8,2.6-0.3c0.3,0.4-0.9,1.5-1.1,2.1
			C11.6,5.4,11.4,5.4,11.2,5.4z"/>
	</g>
</g>
</svg>
