<?xml version="1.0" encoding="utf-8"?>
<!-- Generator: Adobe Illustrator 21.0.0, SVG Export Plug-In . SVG Version: 6.00 Build 0)  -->
<svg version="1.1" id="Capa_1" xmlns="http://www.w3.org/2000/svg" xmlns:xlink="http://www.w3.org/1999/xlink" x="0px" y="0px"
	 viewBox="0 0 13 14" style="enable-background:new 0 0 13 14;" xml:space="preserve">
<style type="text/css">
	.st0{fill:#ACADAF;}
	.st1{fill:#572A99;}
	.st2{fill:#8764C8;}
</style>
<g id="Contenido_1_">
	<g>
		<path class="st0" d="M12.6,13.1h-0.6c0-0.1,0-0.2,0-0.4h0.4c0,0,0.1,0,0.1-0.1v-0.6c0,0,0-0.1-0.1-0.1h-0.4l-0.5-6.6l0.4-0.6
			c0,0-0.1-0.1-0.3-0.1l-0.1-0.5L11,3.9V3.6c0,0,0.4-0.2,0.1-0.6c0,0-0.2-0.5-0.4-0.7c0-0.1,0-0.2,0-0.3c-0.1-0.3,0.2-0.4,0-0.5
			c0,0,0.1-0.3-0.1-0.3c-0.3,0-0.1,0.3-0.1,0.3c-0.2,0.1,0.1,0.2,0,0.5c0,0.1,0,0.2,0,0.3C10.2,2.5,10,3,10,3C9.6,3.3,10,3.6,10,3.6
			v0.3L9.8,4.1C9.3,2.5,8.1,2,7.3,1.8c0-0.1,0.1-0.2,0.2-0.2c0,0,0,0,0,0c0-0.1,0-0.1,0-0.2c0,0,0,0,0,0c-0.1,0-0.2,0-0.2-0.1
			C7.2,1.2,7.2,1.1,7.2,1C7.1,0.9,7,0.8,6.9,0.8C6.9,0.7,7,0.6,7,0.5c0-0.3-0.3-0.3-0.5-0.3c0,0,0,0,0,0C6.3,0.2,6,0.2,6,0.5
			c0,0.1,0.1,0.2,0.1,0.3C6,0.8,5.9,0.9,5.8,1c0,0.1,0,0.2-0.1,0.2C5.7,1.3,5.6,1.4,5.5,1.4c0,0,0,0,0,0c0,0.1,0,0.1,0,0.2
			c0,0,0,0,0,0c0.1,0,0.2,0.1,0.2,0.2C4.9,2,3.7,2.5,3.2,4.1L3,3.9V3.6C3,3.6,3.4,3.3,3,3c0,0-0.2-0.5-0.4-0.7c0-0.1,0-0.2,0-0.3
			c-0.1-0.3,0.2-0.4,0-0.5c0,0,0.1-0.3-0.1-0.3c-0.3,0-0.1,0.3-0.1,0.3C2.2,1.6,2.5,1.7,2.4,2c0,0.1,0,0.2,0,0.3
			C2.1,2.5,1.9,3,1.9,3C1.6,3.3,2,3.6,2,3.6v0.3L1.6,4.2L1.5,4.7c-0.2,0-0.3,0.1-0.3,0.1l0.4,0.6L1.1,12H0.7c0,0-0.1,0-0.1,0.1v0.6
			c0,0,0,0.1,0.1,0.1H1c0,0.2,0,0.3,0,0.4H0.4c0,0-0.1,0-0.1,0.1v0.6c0,0,0,0.1,0.1,0.1h2.1h2.1c0,0,0.1,0,0.1-0.1v-0.6
			c0,0,0-0.1-0.1-0.1H3.9c0-0.1,0-0.2,0-0.4h0.4c0,0,0.1,0,0.1-0.1v-0.6c0,0,0-0.1-0.1-0.1H3.9L3.6,8c0.1-0.1,0.4-0.5,0-1.3
			c0,0,1-1.1,0.7-2c0,0-0.2-1.1,1.1-1.5C5.6,3.4,6,3.6,6.5,3.6c0.5,0,0.9-0.2,1.1-0.4c1.3,0.5,1.1,1.5,1.1,1.5c-0.4,0.8,0.7,2,0.7,2
			C9.1,7.5,9.4,7.9,9.4,8l-0.3,4H8.7c0,0-0.1,0-0.1,0.1v0.6c0,0,0,0.1,0.1,0.1h0.4c0,0.2,0,0.3,0,0.4H8.5c0,0-0.1,0-0.1,0.1v0.6
			c0,0,0,0.1,0.1,0.1h2.1h2.1c0,0,0.1,0,0.1-0.1L12.6,13.1C12.6,13.2,12.6,13.1,12.6,13.1z"/>
	</g>
</g>
</svg>
