<?xml version="1.0" encoding="utf-8"?>
<!-- Generator: Adobe Illustrator 21.0.0, SVG Export Plug-In . SVG Version: 6.00 Build 0)  -->
<svg version="1.1" id="Capa_1" xmlns="http://www.w3.org/2000/svg" xmlns:xlink="http://www.w3.org/1999/xlink" x="0px" y="0px"
	 viewBox="0 0 42 33" enable-background="new 0 0 42 33" xml:space="preserve">
<g>
	<g>
		<g>
			<path fill="#D8D9DA" d="M4.4,10.3c0.5,0.4,2.1,1.5,4.7,3.3c2.6,1.8,4.6,3.2,6,4.2c0.2,0.1,0.5,0.3,1,0.7c0.5,0.4,0.9,0.6,1.2,0.9
				c0.3,0.2,0.7,0.5,1.2,0.7c0.5,0.3,0.9,0.5,1.3,0.6c0.4,0.1,0.8,0.2,1.1,0.2h0h0c0.4,0,0.7-0.1,1.1-0.2c0.4-0.1,0.9-0.3,1.3-0.6
				c0.5-0.3,0.9-0.5,1.2-0.7c0.3-0.2,0.7-0.5,1.2-0.9c0.5-0.4,0.8-0.6,1-0.7c1.4-1,5-3.5,10.7-7.5c1.1-0.8,2-1.7,2.8-2.8
				c0.7-1.1,1.1-2.3,1.1-3.5c0-1-0.4-1.9-1.1-2.6c-0.7-0.7-1.6-1.1-2.6-1.1H4.1C2.9,0.4,2,0.8,1.4,1.6c-0.6,0.8-1,1.8-1,3
				c0,1,0.4,2,1.3,3.1C2.6,8.8,3.5,9.7,4.4,10.3z"/>
			<path fill="#D8D9DA" d="M39.2,12.8c-5,3.4-8.8,6-11.4,7.9c-0.9,0.6-1.6,1.1-2.1,1.5c-0.5,0.4-1.3,0.7-2.2,1.1
				c-0.9,0.4-1.7,0.6-2.5,0.6h0h0c-0.8,0-1.6-0.2-2.5-0.6c-0.9-0.4-1.6-0.7-2.2-1.1c-0.5-0.4-1.2-0.9-2.1-1.5
				c-2.1-1.5-5.9-4.1-11.4-7.9c-0.9-0.6-1.6-1.2-2.3-2V29c0,1,0.4,1.9,1.1,2.6c0.7,0.7,1.6,1.1,2.6,1.1h33.7c1,0,1.9-0.4,2.6-1.1
				c0.7-0.7,1.1-1.6,1.1-2.6V10.8C40.9,11.5,40.1,12.2,39.2,12.8z"/>
		</g>
	</g>
</g>
</svg>
