<?xml version="1.0" encoding="utf-8"?>
<!-- Generator: Adobe Illustrator 21.0.0, SVG Export Plug-In . SVG Version: 6.00 Build 0)  -->
<svg version="1.1" id="Capa_1" xmlns="http://www.w3.org/2000/svg" xmlns:xlink="http://www.w3.org/1999/xlink" x="0px" y="0px"
	 viewBox="0 0 14 14" style="enable-background:new 0 0 14 14;" xml:space="preserve">
<style type="text/css">
	.st0{fill:#ACADAF;}
	.st1{fill:#572A99;}
	.st2{fill:#8764C8;}
</style>
<path id="Facebook__x28_alt_x29__2_" class="st2" d="M13.8,1.2c0-0.6-0.5-1.1-1.1-1.1H1.2c-0.6,0-1.1,0.5-1.1,1.1v11.5
	c0,0.6,0.5,1.1,1.1,1.1h5.7c0,0,0.1,0,0.1-0.1v-5c0,0,0-0.1-0.1-0.1H5.4c0,0-0.1,0-0.1-0.1V6.5c0,0,0-0.1,0.1-0.1h1.5
	c0,0,0.1,0,0.1-0.1V5.5C7,4,8.2,2.6,9.6,2.6h1.8c0,0,0.1,0,0.1,0.1v2.1c0,0,0,0.1-0.1,0.1H9.6c-0.2,0-0.4,0.2-0.4,0.6v0.8
	c0,0,0,0.1,0.1,0.1h2.1c0,0,0.1,0,0.1,0.1v2.1c0,0,0,0.1-0.1,0.1H9.2c0,0-0.1,0-0.1,0.1v5c0,0,0,0.1,0.1,0.1h3.6
	c0.6,0,1.1-0.5,1.1-1.1V1.2z"/>
</svg>
