<?xml version="1.0" encoding="utf-8"?>
<!-- Generator: Adobe Illustrator 21.0.0, SVG Export Plug-In . SVG Version: 6.00 Build 0)  -->
<svg version="1.1" id="Capa_1" xmlns="http://www.w3.org/2000/svg" xmlns:xlink="http://www.w3.org/1999/xlink" x="0px" y="0px"
	 viewBox="0 0 18.4 15.1" style="enable-background:new 0 0 18.4 15.1;" xml:space="preserve">
<style type="text/css">
	.st0{fill:#ACADAF;}
	.st1{fill:#572A99;}
	.st2{fill:#8764C8;}
</style>
<g>
	<g>
		<path class="st0" d="M6.3,8.1c0.1,0.4-0.2,0.8-0.6,0.8H5L4.9,9.7l-0.4,4.6c0,0.4-0.4,0.8-0.8,0.8H2.4c-0.4,0-0.7-0.4-0.8-0.8
			L1.3,9.7L1.3,8.9H0.6C0.2,8.9-0.1,8.5,0,8.1l0.7-3.4c0.1-0.4,0.5-0.8,1-0.8h0.6H4h0.6c0.5,0,0.9,0.4,1,0.8L6.3,8.1 M4.8,1.6
			C4.8,0.7,4.1,0,3.2,0C2.3,0,1.5,0.7,1.5,1.6c0,0.9,0.7,1.6,1.6,1.6S4.8,2.5,4.8,1.6 M13,11.1l-1.9-6.4c-0.1-0.4-0.5-0.8-1-0.8H9.1
			c-0.5,0-0.9,0.4-1,0.8l-1.8,6.4c-0.1,0.4,0.2,0.8,0.7,0.8h0.2H8l0.1,0.8l0.1,1.6c0,0.4,0.4,0.8,0.8,0.8h1.4c0.4,0,0.7-0.4,0.8-0.8
			l0.1-1.6l0.1-0.8h0.8h0.3C12.8,11.9,13.1,11.5,13,11.1 M11.3,1.6c0-0.9-0.7-1.6-1.6-1.6C8.8,0,8,0.7,8,1.6c0,0.9,0.7,1.6,1.6,1.6
			C10.6,3.3,11.3,2.5,11.3,1.6 M18.4,9.9l-0.5-2.5c-0.1-0.3-0.4-0.6-0.7-0.6h-0.4h-1.2H15c-0.3,0-0.7,0.3-0.7,0.6l-0.5,2.5
			c-0.1,0.3,0.1,0.6,0.4,0.6h0.5l0.1,0.6l0.3,3.4c0,0.3,0.3,0.6,0.6,0.6h1c0.3,0,0.5-0.3,0.6-0.6l0.3-3.4l0-0.6H18
			C18.3,10.5,18.5,10.3,18.4,9.9 M17.3,5.2c0-0.7-0.5-1.2-1.2-1.2c-0.7,0-1.2,0.5-1.2,1.2s0.5,1.2,1.2,1.2
			C16.7,6.4,17.3,5.8,17.3,5.2"/>
	</g>
</g>
</svg>
