<?xml version="1.0" encoding="utf-8"?>
<!-- Generator: Adobe Illustrator 17.0.0, SVG Export Plug-In . SVG Version: 6.00 Build 0)  -->
<!DOCTYPE svg PUBLIC "-//W3C//DTD SVG 1.1//EN" "http://www.w3.org/Graphics/SVG/1.1/DTD/svg11.dtd">
<svg version="1.1" id="Capa_1" xmlns="http://www.w3.org/2000/svg" xmlns:xlink="http://www.w3.org/1999/xlink" x="0px" y="0px"
	 width="28.435px" height="21.822px" viewBox="0 0 28.435 21.822" enable-background="new 0 0 28.435 21.822" xml:space="preserve">
<g>
	<g>
		<g>
			<path fill="#9364CC" d="M21.738,9.712H11.667v3.357h6.144c-0.917,2.919-3.643,5.036-6.864,5.036
				c-3.973,0-7.194-3.221-7.194-7.194c0-3.973,3.221-7.194,7.194-7.194c2.001,0,3.81,0.817,5.114,2.135l2.437-2.649
				c-1.946-1.907-4.611-3.083-7.551-3.083c-5.959,0-10.79,4.831-10.79,10.79s4.831,10.791,10.79,10.791
				c5.22,0,9.791-3.707,10.791-8.632L21.738,9.712L21.738,9.712L21.738,9.712z"/>
			<polygon fill="#9364CC" points="28.278,9.707 26.218,9.707 26.218,7.647 24.452,7.647 24.452,9.707 22.392,9.707 22.392,11.472 
				24.452,11.472 24.452,13.532 26.218,13.532 26.218,11.472 28.278,11.472 			"/>
		</g>
	</g>
</g>
</svg>
