<?xml version="1.0" encoding="utf-8"?>
<!-- Generator: Adobe Illustrator 21.0.0, SVG Export Plug-In . SVG Version: 6.00 Build 0)  -->
<svg version="1.1" id="Capa_1" xmlns="http://www.w3.org/2000/svg" xmlns:xlink="http://www.w3.org/1999/xlink" x="0px" y="0px"
	 viewBox="0 0 14 14" style="enable-background:new 0 0 14 14;" xml:space="preserve">
<style type="text/css">
	.st0{fill:#ACADAF;}
	.st1{fill:#572A99;}
	.st2{fill:#8764C8;}
</style>
<g>
	<circle class="st2" cx="7" cy="7" r="1.8"/>
	<path class="st2" d="M9.1,2.7H4.9c-0.6,0-1.1,0.2-1.5,0.6S2.8,4.2,2.8,4.8v4.4c0,0.6,0.2,1.1,0.6,1.5c0.4,0.4,0.9,0.6,1.5,0.6h4.2
		c0.6,0,1.1-0.2,1.5-0.6c0.4-0.4,0.6-0.9,0.6-1.5V4.8c0-0.6-0.2-1.1-0.6-1.5C10.2,2.9,9.6,2.7,9.1,2.7z M7,9.7
		C5.5,9.7,4.3,8.5,4.3,7S5.5,4.2,7,4.2c1.5,0,2.7,1.2,2.7,2.7S8.5,9.7,7,9.7z M9.8,4.9c-0.4,0-0.6-0.3-0.6-0.7
		c0-0.4,0.3-0.7,0.6-0.7c0.4,0,0.7,0.3,0.7,0.7C10.4,4.6,10.1,4.9,9.8,4.9z"/>
	<path class="st2" d="M10.9,0.2H3.1c-1.6,0-3,1.3-3,3v7.7c0,1.7,1.3,3,3,3h7.7c1.6,0,3-1.3,3-3V3.2C13.9,1.5,12.5,0.2,10.9,0.2z
		 M12,9.3c0,1.6-1.3,2.9-2.9,2.9H4.9C3.3,12.2,2,10.8,2,9.3V4.8c0-1.6,1.3-2.9,2.9-2.9h4.2c1.6,0,2.9,1.3,2.9,2.9V9.3z"/>
</g>
</svg>
