<?xml version="1.0" encoding="utf-8"?>
<!-- Generator: Adobe Illustrator 17.0.0, SVG Export Plug-In . SVG Version: 6.00 Build 0)  -->
<!DOCTYPE svg PUBLIC "-//W3C//DTD SVG 1.1//EN" "http://www.w3.org/Graphics/SVG/1.1/DTD/svg11.dtd">
<svg version="1.1" id="Capa_1" xmlns="http://www.w3.org/2000/svg" xmlns:xlink="http://www.w3.org/1999/xlink" x="0px" y="0px"
	 width="10.665px" height="11.747px" viewBox="0 0 10.665 11.747" enable-background="new 0 0 10.665 11.747" xml:space="preserve">
<g>
	<path fill="#808080" d="M5.48,10.422c0,0-2.382-3.955-1.279-7.225c0,0-0.262-0.22-0.569-0.451c0,0-1.707,3.615-0.346,7.968
		L5.48,10.422z"/>
	<path fill="#808080" d="M3.906,3.4c-0.665-0.829-1.663-2.16-2.933-1.625C0.496,1.976,0.152,2.463,0.006,2.951
		c-0.041,0.139,0.125,0.273,0.25,0.191c0.267-0.176,0.552-0.277,0.845-0.318c0.04-0.181,0.169-0.362,0.276-0.503
		c0.019-0.025,0.06-0.003,0.054,0.026c-0.029,0.147-0.032,0.301-0.02,0.454C1.534,2.801,1.657,2.81,1.779,2.826
		c-0.011-0.094-0.006-0.194,0-0.279c0.002-0.023,0.035-0.025,0.043-0.005C1.87,2.66,1.943,2.769,2.025,2.87
		c0.712,0.157,1.118,0.322,1.643,0.772c0.07,0.087,0.166,0.066,0.225,0.001C3.966,3.585,3.997,3.478,3.906,3.4z"/>
	<path fill="#808080" d="M3.555,3.28c0.958-0.759,2.802-2.193,4.088-1.268c0.484,0.348,0.744,0.983,0.782,1.566
		c0.011,0.166-0.21,0.274-0.329,0.15C7.842,3.462,7.548,3.276,7.23,3.154C7.231,2.941,7.133,2.706,7.049,2.52
		C7.034,2.486,6.983,2.501,6.982,2.535C6.977,2.707,6.94,2.881,6.888,3.05C6.751,3.018,6.612,2.996,6.47,2.983
		C6.507,2.88,6.527,2.768,6.542,2.671c0.004-0.026-0.033-0.038-0.047-0.017c-0.083,0.12-0.193,0.224-0.311,0.316
		C5.345,2.963,4.464,3.243,3.76,3.612c-0.101,0.08-0.203,0.031-0.253-0.056C3.44,3.472,3.433,3.344,3.555,3.28z"/>
	<path fill="#808080" d="M3.568,3.539c0.14-1.132,0.426-3.294,1.886-3.522c0.549-0.086,1.139,0.166,1.546,0.529
		c0.116,0.104,0.04,0.32-0.121,0.315C6.537,0.85,6.22,0.92,5.929,1.047C5.79,0.904,5.571,0.812,5.393,0.744
		C5.361,0.731,5.336,0.775,5.358,0.798c0.109,0.118,0.198,0.257,0.275,0.404C5.521,1.27,5.414,1.347,5.311,1.432
		c-0.043-0.092-0.103-0.18-0.157-0.255c-0.014-0.02-0.047-0.003-0.043,0.02c0.023,0.134,0.018,0.275,0,0.414
		C4.55,2.156,4.148,2.919,3.922,3.625C3.907,3.744,3.807,3.779,3.717,3.753C3.618,3.742,3.529,3.661,3.568,3.539z"/>
	<path fill="#808080" d="M3.822,3.605C3.918,2.613,4.085,0.713,2.882,0.24C2.43,0.063,1.879,0.165,1.462,0.397
		C1.343,0.464,1.367,0.663,1.505,0.689C1.8,0.746,2.058,0.865,2.282,1.029c0.146-0.095,0.351-0.132,0.515-0.157
		c0.03-0.004,0.042,0.037,0.019,0.053C2.7,1.006,2.598,1.107,2.505,1.218c0.082,0.08,0.159,0.166,0.231,0.257
		C2.79,1.404,2.858,1.341,2.918,1.287l0.033,0.025c-0.045,0.11-0.068,0.232-0.079,0.353c0.375,0.572,0.574,1.3,0.632,1.946
		C3.493,3.716,3.572,3.765,3.654,3.76C3.741,3.769,3.832,3.717,3.822,3.605z"/>
	<path fill="#808080" d="M8.221,5.981L8.221,5.981L8.221,5.981L8.221,5.981L8.221,5.981C6.982,5.437,5.544,5.967,4.948,7.165
		c0.23-0.022,0.491,0.018,0.744,0.129c0.327,0.143,0.574,0.374,0.702,0.624c0.047-0.094,0.096-0.184,0.145-0.27
		C6.49,7.734,6.441,7.824,6.394,7.918c0.27-0.075,0.608-0.049,0.934,0.095C7.655,8.156,7.902,8.386,8.03,8.635l0,0l0,0.001
		C8.3,8.562,8.638,8.588,8.964,8.731l0,0l0,0c0.253,0.111,0.459,0.275,0.598,0.46C10.041,7.942,9.458,6.524,8.221,5.981z"/>
	<path fill="#808080" d="M6.638,10.151c-0.023,0.065-0.095,0.098-0.16,0.075L6.47,10.223c-0.065-0.023-0.098-0.095-0.075-0.16
		L7.941,5.78C7.964,5.716,8.036,5.682,8.1,5.705l0.009,0.003c0.065,0.023,0.098,0.095,0.075,0.16L6.638,10.151z"/>
	<path fill="#808080" d="M10.568,11.267c-0.901-1.09-2.766-1.839-4.921-1.839c-2.155,0-4.02,0.749-4.921,1.839H10.568z"/>
	<path fill="#808080" d="M10.665,11.507c0,0.132-0.107,0.24-0.24,0.24H0.829c-0.132,0-0.24-0.107-0.24-0.24v-0.24
		c0-0.132,0.107-0.24,0.24-0.24h9.596c0.132,0,0.24,0.107,0.24,0.24V11.507z"/>
</g>
</svg>
