<?xml version="1.0" encoding="utf-8"?>
<!-- Generator: Adobe Illustrator 21.0.0, SVG Export Plug-In . SVG Version: 6.00 Build 0)  -->
<svg version="1.1" id="Capa_1" xmlns="http://www.w3.org/2000/svg" xmlns:xlink="http://www.w3.org/1999/xlink" x="0px" y="0px"
	 viewBox="0 0 14.4 15.9" style="enable-background:new 0 0 14.4 15.9;" xml:space="preserve">
<style type="text/css">
	.st0{fill:#ACADAF;}
	.st1{fill:#572A99;}
	.st2{fill:#8764C8;}
</style>
<g>
	<g>
		<path class="st0" d="M7.4,14c0,0-3.2-5.3-1.7-9.7c0,0-0.4-0.3-0.8-0.6c0,0-2.3,4.8-0.5,10.6L7.4,14z"/>
		<path class="st0" d="M5.3,4.6C4.4,3.5,3.1,1.7,1.4,2.5C0.8,2.7,0.3,3.4,0.1,4C0,4.2,0.3,4.4,0.4,4.3c0.4-0.2,0.7-0.4,1.1-0.4
			c0.1-0.2,0.2-0.5,0.4-0.7c0,0,0.1,0,0.1,0c0,0.2,0,0.4,0,0.6c0.2,0,0.3,0,0.5,0c0-0.1,0-0.3,0-0.4c0,0,0,0,0.1,0
			c0.1,0.2,0.2,0.3,0.3,0.4c1,0.2,1.5,0.4,2.2,1C5.1,5.1,5.2,5,5.3,5C5.4,4.9,5.4,4.7,5.3,4.6z"/>
		<path class="st0" d="M4.8,4.5c1.3-1,3.7-2.9,5.5-1.7c0.6,0.5,1,1.3,1,2.1c0,0.2-0.3,0.4-0.4,0.2c-0.3-0.4-0.7-0.6-1.2-0.8
			c0-0.3-0.1-0.6-0.2-0.8c0,0-0.1,0-0.1,0c0,0.2-0.1,0.5-0.1,0.7c-0.2,0-0.4-0.1-0.6-0.1c0-0.1,0.1-0.3,0.1-0.4c0,0,0-0.1-0.1,0
			C8.7,3.8,8.5,3.9,8.4,4.1c-1.1,0-2.3,0.4-3.2,0.9C5,5,4.8,5,4.8,4.8C4.7,4.7,4.7,4.6,4.8,4.5z"/>
		<path class="st0" d="M4.9,4.8C5,3.3,5.4,0.4,7.4,0.1C8.1,0,8.9,0.3,9.4,0.8C9.6,1,9.5,1.2,9.3,1.2C8.8,1.2,8.4,1.3,8,1.5
			C7.8,1.3,7.5,1.2,7.3,1.1c0,0-0.1,0,0,0.1c0.1,0.2,0.3,0.3,0.4,0.5C7.5,1.8,7.3,1.9,7.2,2C7.1,1.9,7,1.8,7,1.7c0,0-0.1,0-0.1,0
			c0,0.2,0,0.4,0,0.6C6.2,3,5.6,4,5.3,4.9c0,0.2-0.2,0.2-0.3,0.2C4.9,5.1,4.8,5,4.9,4.8z"/>
		<path class="st0" d="M5.2,4.9C5.3,3.6,5.5,1,3.9,0.4C3.3,0.2,2.6,0.3,2,0.6C1.9,0.7,1.9,1,2.1,1c0.4,0.1,0.7,0.2,1,0.5
			c0.2-0.1,0.5-0.2,0.7-0.2c0,0,0.1,0.1,0,0.1C3.7,1.4,3.6,1.6,3.4,1.7c0.1,0.1,0.2,0.2,0.3,0.3C3.8,2,3.9,1.9,4,1.8l0,0
			C4,2,3.9,2.2,3.9,2.3c0.5,0.8,0.8,1.7,0.8,2.6c0,0.1,0.1,0.2,0.2,0.2C5.1,5.1,5.2,5.1,5.2,4.9z"/>
		<path class="st0" d="M11.1,8.1L11.1,8.1L11.1,8.1L11.1,8.1L11.1,8.1c-1.7-0.7-3.6,0-4.4,1.6c0.3,0,0.7,0,1,0.2
			c0.4,0.2,0.8,0.5,0.9,0.8c0.1-0.1,0.1-0.2,0.2-0.4c-0.1,0.1-0.1,0.2-0.2,0.4c0.4-0.1,0.8-0.1,1.2,0.1c0.4,0.2,0.8,0.5,0.9,0.8l0,0
			l0,0c0.4-0.1,0.8-0.1,1.2,0.1l0,0l0,0c0.3,0.1,0.6,0.4,0.8,0.6C13.5,10.7,12.7,8.8,11.1,8.1z"/>
		<path class="st0" d="M9,13.7c0,0.1-0.1,0.1-0.2,0.1l0,0c-0.1,0-0.1-0.1-0.1-0.2l2.1-5.7c0-0.1,0.1-0.1,0.2-0.1l0,0
			c0.1,0,0.1,0.1,0.1,0.2L9,13.7z"/>
		<path class="st0" d="M14.2,15.1c-1.2-1.5-3.7-2.5-6.6-2.5c-2.9,0-5.4,1-6.6,2.5H14.2z"/>
		<path class="st0" d="M14.3,15.5c0,0.2-0.1,0.3-0.3,0.3H1.2c-0.2,0-0.3-0.1-0.3-0.3v-0.3c0-0.2,0.1-0.3,0.3-0.3H14
			c0.2,0,0.3,0.1,0.3,0.3V15.5z"/>
	</g>
</g>
</svg>
