<?xml version="1.0" encoding="utf-8"?>
<!-- Generator: Adobe Illustrator 21.0.0, SVG Export Plug-In . SVG Version: 6.00 Build 0)  -->
<svg version="1.1" id="Capa_1" xmlns="http://www.w3.org/2000/svg" xmlns:xlink="http://www.w3.org/1999/xlink" x="0px" y="0px"
	 viewBox="0 0 19 13" style="enable-background:new 0 0 19 13;" xml:space="preserve">
<style type="text/css">
	.st0{fill:#ACADAF;}
	.st1{fill:#572A99;}
	.st2{fill:#8764C8;}
</style>
<g>
	<path class="st1" d="M6.2,2.2L3.9,5.8c0,0.1,0,0.2,0,0.2l9.8,6.5c0.1,0,0.2,0.1,0.3,0.1l4.4,0.4c0.1,0,0.2-0.1,0.1-0.2l-2.1-3.9
		c0-0.1-0.1-0.2-0.2-0.2L6.5,2.1C6.4,2.1,6.3,2.1,6.2,2.2z M16.1,9.3l1,1.9c0,0,0,0.1,0,0.1c-0.1,0.1-0.3,0.2-0.4,0.4
		c-0.1,0.2-0.2,0.3-0.2,0.5c0,0,0,0.1-0.1,0.1L14.3,12c0,0-0.1,0,0,0c0,0,0,0,0,0c0.1-0.2,0.1-0.5-0.1-0.7c0,0,0-0.1,0-0.1
		c0.3,0,0.7-0.2,0.9-0.6c0.2-0.4,0.3-0.8,0.2-1.1c0,0,0-0.1,0,0C15.6,9.6,15.9,9.5,16.1,9.3C16,9.3,16.1,9.3,16.1,9.3
		C16.1,9.3,16.1,9.3,16.1,9.3z"/>
	<path class="st1" d="M0.9,1.1L0.8,1.3c-0.7,1-0.5,2.4,0.4,3l1.7,1.1c0.1,0,0.2,0,0.2,0l2.4-3.6c0-0.1,0-0.2,0-0.2
		c0,0-0.7-0.5-1.7-1.1C2.9-0.2,1.6,0.1,0.9,1.1z"/>
</g>
</svg>
