<?xml version="1.0" encoding="utf-8"?>
<!-- Generator: Adobe Illustrator 17.0.0, SVG Export Plug-In . SVG Version: 6.00 Build 0)  -->
<!DOCTYPE svg PUBLIC "-//W3C//DTD SVG 1.1//EN" "http://www.w3.org/Graphics/SVG/1.1/DTD/svg11.dtd">
<svg version="1.1" xmlns="http://www.w3.org/2000/svg" xmlns:xlink="http://www.w3.org/1999/xlink" x="0px" y="0px"
	 width="44.158px" height="42.401px" viewBox="0 0 44.158 42.401" enable-background="new 0 0 44.158 42.401" xml:space="preserve">
<g id="Fijos">
	<g>
		<path id="XMLID_22_" fill="#783CBD" d="M41.232,34.112c-1.676,0-2.448-1.075-2.448-2.505c0-1.275-0.003-19.263-0.003-19.263
			c0-5.08-1.986-12.037-10.432-12.037H0.321v29.684v12.037c8.406,0,10.432-5.888,10.432-10.448l0.002-26.067h10.431
			c5.591,0,7.163,4.418,7.163,8.702c0,3.222,0.005,20.84,0.005,20.84c0,7.109,6.895,7.038,6.895,7.038
			c8.049,0,9.082-7.401,8.424-9.821C43.318,33.616,42.296,34.112,41.232,34.112z"/>
	</g>
</g>
<g id="Contenido">
</g>
<g id="Tablet">
</g>
<g id="Móvil">
</g>
<g id="Estilos">
</g>
<g id="Guias" display="none">
</g>
</svg>
