<?xml version="1.0" encoding="utf-8"?>
<!-- Generator: Adobe Illustrator 21.0.0, SVG Export Plug-In . SVG Version: 6.00 Build 0)  -->
<svg version="1.1" id="Capa_1" xmlns="http://www.w3.org/2000/svg" xmlns:xlink="http://www.w3.org/1999/xlink" x="0px" y="0px"
	 viewBox="0 0 16 12" style="enable-background:new 0 0 16 12;" xml:space="preserve">
<style type="text/css">
	.st0{fill:#ACADAF;}
	.st1{fill:#572A99;}
	.st2{fill:#8764C8;}
</style>
<g id="Contenido_4_">
	<g>
		<path class="st0" d="M15,0.2H1c-0.3,0-0.5,0.2-0.5,0.5v8.8v1.8c0,0.3,0.2,0.5,0.5,0.5H15c0.3,0,0.5-0.2,0.5-0.5V9.4V0.7
			C15.5,0.4,15.3,0.2,15,0.2z M3.6,6.7L3.4,6.1L2.8,6.7l0.6-1c0.1-0.1,0.1-0.2,0.2-0.2s0.1,0,0.2,0.2l0.6,1L3.7,6.1L3.6,6.7z
			 M8.4,3.7l0,0.8L7.8,3.8l-1.1,1l1.2-2.1C8,2.6,8.1,2.5,8.1,2.5c0,0,0.1,0,0.2,0.2l1.2,2.1L8.4,3.7z M12.7,6.1l-0.2,0.6L12.4,6
			l-0.6,0.6l0.6-1c0.1-0.1,0.1-0.2,0.2-0.2c0,0,0.1,0,0.2,0.2l0.6,1L12.7,6.1z M14.7,9.1L13,5.6c-0.1-0.1-0.2-0.2-0.3-0.3
			c-0.2-0.1-0.5,0-0.7,0.3L11.2,7l-0.6,1l0.5-1L8.6,2.7c-0.3-0.5-0.7-0.5-1,0L4.5,8l0.4-0.9l0,0L4.1,5.6C3.9,5.3,3.6,5.2,3.4,5.3
			C3.3,5.4,3.2,5.5,3.1,5.6L1.3,9.2v-1V1.3c0-0.3,0.2-0.5,0.5-0.5h12.4c0.3,0,0.5,0.2,0.5,0.5V8V9.1z"/>
	</g>
</g>
</svg>
