<?xml version="1.0" encoding="utf-8"?>
<!-- Generator: Adobe Illustrator 21.0.0, SVG Export Plug-In . SVG Version: 6.00 Build 0)  -->
<svg version="1.1" id="Capa_1" xmlns="http://www.w3.org/2000/svg" xmlns:xlink="http://www.w3.org/1999/xlink" x="0px" y="0px"
	 viewBox="0 0 16 18.5" style="enable-background:new 0 0 16 18.5;" xml:space="preserve">
<style type="text/css">
	.st0{fill:#ACADAF;}
	.st1{fill:#572A99;}
	.st2{fill:#8764C8;}
</style>
<path class="st1" d="M8.1,0.2l-0.2,0c-4.2,0-7.7,3.4-7.7,7.7c0,5.4,4.2,8.4,7.4,10.2l0.2,0.1l0.2-0.1c5.2-2.9,7.7-6.2,7.7-10.2
	C15.8,3.7,12.3,0.2,8.1,0.2z M11.8,11.9c-0.4,0.5-1.1,0.5-1.1,0.5s-1.2,0-1.4-1.2l0-3.8c0-0.2-0.2-1.3-1.3-1.3H6.2l0,4.2
	c0,0,0,0.7-0.2,1.2c-0.2,0.4-0.6,0.8-1.6,0.9v-2.1V5.2h4.9c1,0.1,1.4,0.5,1.6,0.9c0.2,0.4,0.2,1.2,0.2,1.2l0,3.3c0,0,0,0.4,0.5,0.4
	c0,0,0.3,0,0.4-0.3C12.1,10.7,12.2,11.3,11.8,11.9z"/>
</svg>
