<?xml version="1.0" encoding="utf-8"?>
<!-- Generator: Adobe Illustrator 21.0.0, SVG Export Plug-In . SVG Version: 6.00 Build 0)  -->
<svg version="1.1" id="Capa_1" xmlns="http://www.w3.org/2000/svg" xmlns:xlink="http://www.w3.org/1999/xlink" x="0px" y="0px"
	 viewBox="0 0 51.5 36" enable-background="new 0 0 51.5 36" xml:space="preserve">
<path fill="#D5BDEA" d="M50.3,5.9c0-0.2-0.1-0.4-0.1-0.6c0-0.1-0.1-0.2-0.1-0.3c-0.6-1.9-2.5-3.3-4.6-3.3h0.3c0,0-8.6-1.3-20.1-1.4
	C14.3,0.5,5.7,1.8,5.7,1.8H6c-2.1,0-4,1.4-4.6,3.3c0,0.1-0.1,0.2-0.1,0.3C1.3,5.6,1.2,5.8,1.2,5.9C0.9,8.2,0.4,12.7,0.3,18
	c0,5.4,0.6,9.8,0.9,12.1c0,0.2,0.1,0.4,0.1,0.6c0,0.1,0.1,0.2,0.1,0.3C2,32.8,3.8,34.2,6,34.2H5.7c0,0,8.6,1.3,20.1,1.4
	c11.5-0.1,20.1-1.4,20.1-1.4h-0.3c2.1,0,4-1.4,4.6-3.3c0-0.1,0.1-0.2,0.1-0.3c0.1-0.2,0.1-0.4,0.1-0.6c0.3-2.2,0.8-6.7,0.9-12.1
	C51.1,12.7,50.6,8.2,50.3,5.9z M33.3,19.1L23,26.6c-0.2,0.2-0.5,0.2-0.7,0.2c-0.2,0-0.4,0-0.6-0.1C21.3,26.4,21,26,21,25.5V10.6
	c0-0.5,0.3-0.9,0.7-1.1c0.4-0.2,0.9-0.2,1.3,0.1l10.3,7.5c0.3,0.2,0.5,0.6,0.5,1S33.6,18.9,33.3,19.1z"/>
</svg>
