<svg id="Contenido" xmlns="http://www.w3.org/2000/svg" viewBox="0 0 18.33 23.81"><defs><style>.cls-1{fill:#cdafe5;}</style></defs><title>1 adulto -  detalles de vuelo</title><path class="cls-1" d="M13.09,15.58a2.13,2.13,0,0,0,0-4.25h-.25A5.81,5.81,0,0,0,7.67,8.14H6.93L5.62,4.69a2.14,2.14,0,0,0-2-1.36,2.1,2.1,0,0,0-2,2.87l3,7.94a2.3,2.3,0,0,0,2.07,1.44H8.46V19.1H6.1a.53.53,0,0,0-.53.54v.19a.53.53,0,0,0,.53.53h6.56a.53.53,0,0,0,.53-.53v-.19a.54.54,0,0,0-.53-.54H10.3V15.58ZM7.67,9.21a4.72,4.72,0,0,1,3.94,2.12H8.14L7.33,9.21Z"/></svg>