<svg id="Contenido" xmlns="http://www.w3.org/2000/svg" viewBox="0 0 33.67 41.05"><defs><style>.cls-1{fill:#361e5d;}.cls-2{fill:#eba900;}.cls-3{fill:#c9abe1;}.cls-4{fill:#9164cc;opacity:0.7;}</style></defs><title>Búsqueda de vuelos estilos</title><path class="cls-1" d="M25.84,28.35h3.7a.71.71,0,0,0,.71-.71V24.79a2.14,2.14,0,0,0-2.14-2.14H13.48l-1.11-5H23.84a.71.71,0,0,0,.71-.72V14.09a.71.71,0,0,0-.71-.71H11.42L9.09,2.93A2.11,2.11,0,0,0,7,1.26H3.16A.71.71,0,0,0,2.44,2a.77.77,0,0,0,0,.15L8.1,27.51l-7,11.16a.71.71,0,0,0,.22,1,.76.76,0,0,0,.38.11h30a.71.71,0,0,0,.71-.71.7.7,0,0,0-.11-.38Z"/><rect class="cls-2" x="8.86" y="14.8" width="14.26" height="1.43"/><path class="cls-3" d="M7,2.68a.72.72,0,0,1,.69.56L10,13.38H8.15a.71.71,0,0,0-.71.71v2.85a.71.71,0,0,0,.71.72h2.76l1.3,5.86a.71.71,0,0,0,.7.55h15.2a.72.72,0,0,1,.72.72v2.14H9.43L4.05,2.68Z"/><polygon class="cls-4" points="3.02 38.34 9.25 28.35 24.15 28.35 30.4 38.34 3.02 38.34"/></svg>