<svg id="Contenido" xmlns="http://www.w3.org/2000/svg" viewBox="0 0 44 40.41"><defs><style>.cls-1,.cls-3{opacity:0.7;}.cls-2,.cls-3{fill:#9164cc;}.cls-4{fill:#361e5d;}</style></defs><title>Búsqueda de vuelos estilos</title><g class="cls-1"><path class="cls-2" d="M18.52,29.24H3.3a1.38,1.38,0,0,1-1.38-1.38V12.64A1.38,1.38,0,0,1,3.3,11.26H18.52a1.38,1.38,0,0,1,1.38,1.38V27.86a1.38,1.38,0,0,1-1.38,1.38"/></g><path class="cls-3" d="M18.52,11.26H16.44a1.38,1.38,0,0,1,1.38,1.38V27.86a1.38,1.38,0,0,1-1.38,1.38h2.08a1.38,1.38,0,0,0,1.38-1.38V12.64a1.38,1.38,0,0,0-1.38-1.38"/><path class="cls-3" d="M40.65,29.24H25.43a1.38,1.38,0,0,1-1.38-1.38V12.64a1.38,1.38,0,0,1,1.38-1.38H40.65A1.38,1.38,0,0,1,42,12.64V27.86a1.38,1.38,0,0,1-1.38,1.38"/><path class="cls-3" d="M40.65,11.26H38.57A1.39,1.39,0,0,1,40,12.64V27.86a1.39,1.39,0,0,1-1.39,1.38h2.08A1.38,1.38,0,0,0,42,27.86V12.64a1.38,1.38,0,0,0-1.38-1.38"/><path class="cls-4" d="M18.52,29.93H3.3a2,2,0,0,1-2.08-2.07V12.64A2,2,0,0,1,3.3,10.57H18.52a2,2,0,0,1,2.07,2.07V27.86A2,2,0,0,1,18.52,29.93ZM3.3,12a.65.65,0,0,0-.69.69V27.86a.65.65,0,0,0,.69.69H18.52a.66.66,0,0,0,.69-.69V12.64a.66.66,0,0,0-.69-.69Z"/><path class="cls-4" d="M11.6,15.41H4.68a.7.7,0,0,1,0-1.39H11.6a.7.7,0,0,1,0,1.39Z"/><path class="cls-4" d="M14.37,18.17H6.76a.69.69,0,0,1,0-1.38h7.61a.69.69,0,0,1,0,1.38Z"/><path class="cls-4" d="M11.6,20.94H4.68a.69.69,0,0,1,0-1.38H11.6a.69.69,0,1,1,0,1.38Z"/><path class="cls-4" d="M7.45,23.71H4.68a.7.7,0,0,1,0-1.39H7.45a.7.7,0,0,1,0,1.39Z"/><path class="cls-4" d="M11.6,26.47H6.07a.69.69,0,1,1,0-1.38H11.6a.69.69,0,0,1,0,1.38Z"/><path class="cls-4" d="M40.65,29.93H25.43a2,2,0,0,1-2.07-2.07V12.64a2,2,0,0,1,2.07-2.07H40.65a2,2,0,0,1,2.07,2.07V27.86A2,2,0,0,1,40.65,29.93ZM25.43,12a.66.66,0,0,0-.69.69V27.86a.66.66,0,0,0,.69.69H40.65a.66.66,0,0,0,.69-.69V12.64a.66.66,0,0,0-.69-.69Z"/><path class="cls-4" d="M33.73,15.41H26.82a.7.7,0,1,1,0-1.39h6.91a.7.7,0,0,1,0,1.39Z"/><path class="cls-4" d="M36.5,18.17H28.89a.69.69,0,0,1,0-1.38H36.5a.69.69,0,1,1,0,1.38Z"/><path class="cls-4" d="M33.73,20.94H26.82a.69.69,0,1,1,0-1.38h6.91a.69.69,0,0,1,0,1.38Z"/><path class="cls-4" d="M29.58,23.71H26.82a.7.7,0,1,1,0-1.39h2.76a.7.7,0,0,1,0,1.39Z"/><path class="cls-4" d="M33.73,26.47H28.2a.69.69,0,0,1,0-1.38h5.53a.69.69,0,0,1,0,1.38Z"/><path class="cls-4" d="M28.41,8.63a.68.68,0,0,1-.63-.48.65.65,0,0,1,.42-.83l4-1.32L30.9,2a.72.72,0,0,1,.41-.9.75.75,0,0,1,.83.49l1.52,4.63a.57.57,0,0,1,0,.48.69.69,0,0,1-.41.35L28.61,8.56A.24.24,0,0,1,28.41,8.63Z"/><path class="cls-4" d="M10.91,7.11a.65.65,0,0,1-.62-.42.69.69,0,0,1,.34-.9,24.16,24.16,0,0,1,22.69,0,.69.69,0,0,1,.34.9.68.68,0,0,1-.9.35A22.91,22.91,0,0,0,11.18,7C11.12,7.11,11,7.11,10.91,7.11Z"/><path class="cls-4" d="M12.43,39.41a.66.66,0,0,1-.62-.49l-1.52-4.63a.55.55,0,0,1,.06-.55.72.72,0,0,1,.42-.35l4.63-1.52a.7.7,0,1,1,.49,1.31l-4,1.32,1.31,4a.72.72,0,0,1-.41.9Z"/><path class="cls-4" d="M22,37.54A24.1,24.1,0,0,1,10.63,34.7a.68.68,0,0,1,.55-1.24,22.91,22.91,0,0,0,21.58,0,.68.68,0,0,1,.9.35.68.68,0,0,1-.34.89A24.11,24.11,0,0,1,22,37.54Z"/></svg>