<svg id="Contenido" xmlns="http://www.w3.org/2000/svg" viewBox="0 0 37.87 36.75"><defs><style>.cls-1{fill:#fff;}.cls-2{fill:#ac86d8;}.cls-3{fill:#9164cc;opacity:0.7;}.cls-4{fill:#361e5d;}</style></defs><title>Búsqueda de vuelos estilos</title><rect id="SVGCleanerId_0" data-name="SVGCleanerId 0" class="cls-1" x="13.53" y="3.42" width="1.21" height="3.63"/><rect id="SVGCleanerId_1" data-name="SVGCleanerId 1" class="cls-1" x="13.53" y="7.86" width="1.21" height="1.61"/><path class="cls-2" d="M7.68,18.75A10.87,10.87,0,0,1,12,10.12l4.44,3.81.16-12.12-12,.4L8.23,6.39a16.12,16.12,0,0,0,10.35,28.5V29.65A10.9,10.9,0,0,1,7.68,18.75Z"/><path class="cls-3" d="M4.86,18.75A16.06,16.06,0,0,1,10.65,6.39L6.07,1.81l-1.47.5L8.23,6.39a16.12,16.12,0,0,0,10.35,28.5v-.21A16.11,16.11,0,0,1,4.86,18.75Z"/><path class="cls-4" d="M19.18,34.23a1.35,1.35,0,0,1-1.37,1.35A16.15,16.15,0,0,1,8,31.71a16.45,16.45,0,0,1-6.13-13A16.63,16.63,0,0,1,7.35,6.36L4.17,3.19A1.17,1.17,0,0,1,5,1.2H15.72a1.44,1.44,0,0,1,1.44,1.44V13.17a1.25,1.25,0,0,1-2.13.88l-3.11-3.12a9.33,9.33,0,0,0-3.63,7.62C9,26.89,15.31,28.6,18,29a1.36,1.36,0,0,1,1.19,1.34ZM5.73,2.41a.26.26,0,0,0-.18.44L9.13,6.43l-.51.43a15.51,15.51,0,0,0,8.63,27.37.68.68,0,0,0,.72-.67V30.84a.65.65,0,0,0-.61-.65A11.49,11.49,0,0,1,11.59,9.64L12,9.32l3.44,3.43a.29.29,0,0,0,.5-.21V3.38a1,1,0,0,0-1-1Z"/><rect id="SVGCleanerId_0-2" data-name="SVGCleanerId 0" class="cls-1" x="23.72" y="29.73" width="1.21" height="3.63"/><rect id="SVGCleanerId_1-2" data-name="SVGCleanerId 1" class="cls-1" x="23.72" y="27.31" width="1.21" height="1.61"/><path class="cls-2" d="M30.78,18a10.85,10.85,0,0,1-4.27,8.63l-4.44-3.81L21.91,35l12-.4-3.69-4.19A16.12,16.12,0,0,0,19.89,1.89V7.14A10.88,10.88,0,0,1,30.78,18Z"/><path class="cls-3" d="M33.61,18a16,16,0,0,1-5.8,12.36L32.4,35l1.47-.5-3.64-4.09A16.12,16.12,0,0,0,19.89,1.89V2.1A16.12,16.12,0,0,1,33.61,18Z"/><path class="cls-4" d="M19.28,2.55A1.35,1.35,0,0,1,20.66,1.2,16.26,16.26,0,0,1,30.5,5.07a16.43,16.43,0,0,1,6.13,13,16.66,16.66,0,0,1-5.51,12.39l3.17,3.18a1.16,1.16,0,0,1-.82,2H22.74a1.44,1.44,0,0,1-1.44-1.44V23.62a1.25,1.25,0,0,1,2.13-.89l3.12,3.12a9.3,9.3,0,0,0,3.63-7.62c-.69-8.34-7-10-9.7-10.4a1.36,1.36,0,0,1-1.2-1.34ZM32.73,34.37a.26.26,0,0,0,.18-.44l-3.57-3.58.51-.42A15.53,15.53,0,0,0,21.21,2.55a.68.68,0,0,0-.72.68V5.94a.67.67,0,0,0,.61.66,11.48,11.48,0,0,1,5.78,20.54l-.43.33L23,24a.3.3,0,0,0-.51.21V33.4a1,1,0,0,0,1,1Z"/></svg>