<svg id="Contenido" xmlns="http://www.w3.org/2000/svg" xmlns:xlink="http://www.w3.org/1999/xlink" viewBox="0 0 28.33 39.86"><defs><style>.cls-1{fill:none;}.cls-2{fill:#eda900;}.cls-3{fill:#b592dc;}.cls-4{fill:#9164cc;opacity:0.7;}.cls-5{clip-path:url(#clip-path);}.cls-6{fill:#361e5d;}</style><clipPath id="clip-path"><rect class="cls-1" x="1.33" y="2.21" width="25.92" height="36.26"/></clipPath></defs><title>Búsqueda de vuelos estilos</title><path class="cls-2" d="M18.15,7.05a4.21,4.21,0,0,1-2.42,3.82H12.1A4.23,4.23,0,0,1,13,2.92a4.6,4.6,0,0,1,.91-.09,4.22,4.22,0,0,1,4.23,4.22Zm0,0"/><path class="cls-3" d="M26.6,19.24V28.8s0,3.26-2.06,5.14a1.17,1.17,0,0,0-.35.86v1.86A1.23,1.23,0,0,1,23,37.87H13.31a1.23,1.23,0,0,1-1.21-1.21v-.23A3.58,3.58,0,0,0,11,33.86,16.93,16.93,0,0,1,7.27,28.8c-1.21-3-3.62-7.25-4.83-8.45s0-2.42,1.21-2.42,3.62,2.42,4.83,4.23a8.89,8.89,0,0,0,1.34,1.6,1.2,1.2,0,0,0,2-.51A7.15,7.15,0,0,0,12.1,21V7.05a1.82,1.82,0,0,1,3.63,0V14.3a1.8,1.8,0,0,1,1.21-1.7,1.73,1.73,0,0,1,.6-.11,1.81,1.81,0,0,1,1.81,1.81v1.82a1.78,1.78,0,0,1,.54-1.28,1.64,1.64,0,0,1,.67-.43,1.78,1.78,0,0,1,.61-.11A1.82,1.82,0,0,1,23,16.12v3a1.81,1.81,0,0,1,.53-1.28,1.68,1.68,0,0,1,.68-.43,1.8,1.8,0,0,1,.73-.1,1.88,1.88,0,0,1,1.68,1.91Zm0,0"/><rect class="cls-1" x="1.33" y="2.21" width="25.92" height="36.26"/><path class="cls-4" d="M26.6,19.24V28.8s0,3.26-2.06,5.14a1.17,1.17,0,0,0-.35.86v1.86A1.23,1.23,0,0,1,23,37.87H21.17a1.22,1.22,0,0,0,1.2-1.21V34.8a1.22,1.22,0,0,1,.36-.86c2.06-1.88,2.06-5.14,2.06-5.14V19.24a1.94,1.94,0,0,0-.91-1.66,1.77,1.77,0,0,1,.31-.15,1.8,1.8,0,0,1,.73-.1,1.88,1.88,0,0,1,1.68,1.91Zm0,0"/><g class="cls-5"><path class="cls-4" d="M9.72,23.67A1.18,1.18,0,0,1,8,23.76a8.89,8.89,0,0,1-1.34-1.6,13.71,13.71,0,0,0-4-4,2,2,0,0,1,1-.26c1.2,0,3.62,2.42,4.83,4.23a10,10,0,0,0,1.24,1.51Zm0,0"/><path class="cls-6" d="M1.46,18.67A1.88,1.88,0,0,0,2,20.77c1.15,1.16,3.53,5.32,4.7,8.26a17,17,0,0,0,3.89,5.26,3,3,0,0,1,.9,2.15v.22a1.81,1.81,0,0,0,1.81,1.81H23a1.81,1.81,0,0,0,1.81-1.81V34.8a.57.57,0,0,1,.16-.41,8.3,8.3,0,0,0,2.26-5.59V19.24A2.48,2.48,0,0,0,25,16.73a2.41,2.41,0,0,0-1.39.33v-.94a2.4,2.4,0,0,0-3.65-2.07,2.4,2.4,0,0,0-3.6-1.83v-1a4.76,4.76,0,0,0,2.42-4.17,4.84,4.84,0,0,0-9.67,0,4.78,4.78,0,0,0,2.42,4.17V21a6.6,6.6,0,0,1-.29,2.11.6.6,0,0,1-.43.4.58.58,0,0,1-.55-.14A8.58,8.58,0,0,1,9,21.82c-1-1.57-3.68-4.5-5.33-4.5a2.4,2.4,0,0,0-2.19,1.35ZM10.29,7.05a3.63,3.63,0,0,1,7.25,0,3.56,3.56,0,0,1-1.21,2.71V7.05a2.42,2.42,0,0,0-4.83,0V9.76a3.63,3.63,0,0,1-1.21-2.71ZM8,22.49A10.16,10.16,0,0,0,9.4,24.2a1.8,1.8,0,0,0,1.67.43,1.84,1.84,0,0,0,1.29-1.19A7.77,7.77,0,0,0,12.71,21V7.05a1.21,1.21,0,0,1,2.41,0V19.74a.61.61,0,0,0,.61.61.6.6,0,0,0,.6-.61V14.3a1.21,1.21,0,0,1,2.42,0v5.44a.61.61,0,1,0,1.21,0V16.12a1.21,1.21,0,1,1,2.41,0v4.23a.61.61,0,0,0,1.21,0V19.14a1.22,1.22,0,0,1,.36-.86,1.26,1.26,0,0,1,.94-.35A1.29,1.29,0,0,1,26,19.24V28.8s0,3-1.86,4.7a1.79,1.79,0,0,0-.56,1.3v1.86a.6.6,0,0,1-.6.6H13.31a.6.6,0,0,1-.6-.6v-.22a4.23,4.23,0,0,0-1.26-3,16.24,16.24,0,0,1-3.62-4.85c-1.24-3.11-3.7-7.4-5-8.66-.29-.29-.39-.55-.29-.79a1.2,1.2,0,0,1,1.07-.6c.82,0,3,2,4.33,4Zm0,0"/></g><g class="cls-5"><path class="cls-6" d="M9.08,12.21a.62.62,0,0,0,.56-.36.6.6,0,0,0-.12-.65,6,6,0,0,1-.26-8,.6.6,0,0,0,.11-.6.57.57,0,0,0-.47-.39.59.59,0,0,0-.57.22A7.23,7.23,0,0,0,8.64,12a.63.63,0,0,0,.44.19Zm0,0"/><path class="cls-6" d="M19.55,10.61a.59.59,0,0,0,.47,0,.64.64,0,0,0,.35-.3,7.22,7.22,0,0,0-.87-7.91.59.59,0,0,0-.57-.22.6.6,0,0,0-.47.39.62.62,0,0,0,.11.6,6,6,0,0,1,.72,6.59.61.61,0,0,0,.26.81Zm0,0"/></g></svg>