<svg id="Contenido" xmlns="http://www.w3.org/2000/svg" viewBox="0 0 23.38 24.5"><defs><style>.cls-1{fill:#b289d8;}.cls-2{fill:#eddeff;}</style></defs><title>BuÌsqueda de vuelos estilos</title><path class="cls-1" d="M22.42,13.78l-.34-.47a1.46,1.46,0,0,1,0-1.71l.33-.47A1.47,1.47,0,0,0,21.89,9l-.51-.27a1.48,1.48,0,0,1-.75-1.54l.1-.56a1.46,1.46,0,0,0-1.38-1.71l-.58,0a1.49,1.49,0,0,1-1.35-1.06l-.16-.55a1.46,1.46,0,0,0-2-.94l-.53.23a1.46,1.46,0,0,1-1.67-.37l-.38-.43a1.45,1.45,0,0,0-2.19,0l-.38.43a1.47,1.47,0,0,1-1.67.39l-.53-.22a1.47,1.47,0,0,0-2,1l-.15.56A1.44,1.44,0,0,1,4.46,5L3.89,5A1.48,1.48,0,0,0,2.53,6.75l.11.57a1.48,1.48,0,0,1-.73,1.55l-.5.28a1.45,1.45,0,0,0-.47,2.14l.34.47a1.46,1.46,0,0,1,0,1.71L1,13.94a1.47,1.47,0,0,0,.51,2.14l.5.27a1.47,1.47,0,0,1,.76,1.54l-.1.56A1.46,1.46,0,0,0,4,20.16l.58,0a1.49,1.49,0,0,1,1.35,1.06l.16.55a1.45,1.45,0,0,0,2,.94l.53-.23a1.46,1.46,0,0,1,1.67.37l.39.43a1.45,1.45,0,0,0,2.19,0l.38-.43a1.46,1.46,0,0,1,1.67-.39l.53.22a1.47,1.47,0,0,0,2-1l.16-.56a1.44,1.44,0,0,1,1.32-1.07l.58,0a1.46,1.46,0,0,0,1.36-1.72l-.11-.57a1.48,1.48,0,0,1,.73-1.55l.5-.28a1.46,1.46,0,0,0,.47-2.14Z"/><path class="cls-2" d="M6.41,10.62a2.27,2.27,0,1,1,2.27,2.27,2.27,2.27,0,0,1-2.27-2.27Z"/><path class="cls-2" d="M9.12,16.48a.55.55,0,0,1-.85-.71l6-7.17a.55.55,0,0,1,.86.7Z"/><path class="cls-2" d="M14.67,16.71a2.27,2.27,0,1,1,2.26-2.27,2.26,2.26,0,0,1-2.26,2.27Z"/><path class="cls-1" d="M9.63,10.62a.94.94,0,1,1-.94-.94.94.94,0,0,1,.94.94Zm0,0"/><path class="cls-1" d="M15.61,14.44a.95.95,0,1,1-.94-.94.95.95,0,0,1,.94.94Zm0,0"/></svg>