<?xml version="1.0" encoding="utf-8"?>
<!-- Generator: Adobe Illustrator 17.0.0, SVG Export Plug-In . SVG Version: 6.00 Build 0)  -->
<!DOCTYPE svg PUBLIC "-//W3C//DTD SVG 1.1//EN" "http://www.w3.org/Graphics/SVG/1.1/DTD/svg11.dtd">
<svg version="1.1" xmlns="http://www.w3.org/2000/svg" xmlns:xlink="http://www.w3.org/1999/xlink" x="0px" y="0px" width="13.7px"
	 height="14.6px" viewBox="0 0 13.7 14.6" style="enable-background:new 0 0 13.7 14.6;" xml:space="preserve">
<g id="Fondos">
</g>
<g id="Fijos">
</g>
<g id="Escritorio">
	<g>
		<g>
			<g>
				<path style="fill:#EDAA00;" d="M13.5,5.3v-2V3.2c0-1.1-1-2-2.2-2.1l0,0v0.5l0,0v0.5v0v0.3c0,0.7-0.6,1.3-1.3,1.3
					c-0.7,0-1.3-0.6-1.3-1.3V2.1V1.6V1.1H4.9v0.5v0.5v0.3c0,0.7-0.6,1.3-1.3,1.3S2.3,3.1,2.3,2.4V2.1v0V1.6l0,0V1.1l0,0
					c-1.2,0.1-2.2,1-2.2,2.1v0.2v2v6.9c0,1.3,1,2.3,2.3,2.3h8.8c1.3,0,2.3-1,2.3-2.3V5.3L13.5,5.3z M12.5,12.2
					c0,0.7-0.6,1.3-1.3,1.3H2.4c-0.7,0-1.3-0.6-1.3-1.3V5.3h11.4L12.5,12.2L12.5,12.2z"/>
				<path style="fill:#EDAA00;" d="M3.1,0.7v0.4v0.5v0.5v0.3C3.1,2.7,3.3,3,3.6,3c0.3,0,0.6-0.3,0.6-0.6V2.1V1.6V1.1V0.7
					c0-0.3-0.3-0.6-0.6-0.6C3.3,0.2,3.1,0.4,3.1,0.7z"/>
				<path style="fill:#EDAA00;" d="M10,0.2c-0.3,0-0.6,0.3-0.6,0.6v0.4v0.5v0.5v0.3C9.4,2.7,9.7,3,10,3c0.3,0,0.6-0.3,0.6-0.6V2.1
					V1.6V1.1V0.7C10.6,0.4,10.3,0.2,10,0.2z"/>
				<path style="fill:#EDAA00;" d="M5.5,8.2h0.8c0.1,0,0.2,0.1,0.2,0.2v3.4c0,0.1,0.1,0.2,0.2,0.2h0.6c0.1,0,0.2-0.1,0.2-0.2V6.7
					c0-0.1-0.1-0.2-0.2-0.2H7c-0.1,0-0.2,0.1-0.3,0.1c0,0,0,0.1,0,0.1c0,0.2-0.1,0.3-0.2,0.4C6.3,7.2,6.2,7.3,5.9,7.3
					c-0.1,0-0.3,0-0.5,0.1c-0.1,0-0.2,0.1-0.2,0.3v0.3C5.2,8,5.3,8.2,5.5,8.2z"/>
			</g>
		</g>
	</g>
</g>
<g id="Estilos" style="display:none;">
</g>
<g id="Guides" style="display:none;">
</g>
</svg>
