<?xml version="1.0" encoding="utf-8"?>
<!-- Generator: Adobe Illustrator 21.0.0, SVG Export Plug-In . SVG Version: 6.00 Build 0)  -->
<svg version="1.1" id="Capa_1" xmlns="http://www.w3.org/2000/svg" xmlns:xlink="http://www.w3.org/1999/xlink" x="0px" y="0px"
	 viewBox="0 0 35.1 42.8" style="enable-background:new 0 0 35.1 42.8;" xml:space="preserve">
<style type="text/css">
	.st0{fill:#EDAA00;}
	.st1{fill:#62269E;}
	.st2{fill:#DAC4EC;}
	.st3{fill:#D8D9DA;}
	.st4{opacity:0.37;fill:#9D9D9C;}
	.st5{fill:#DCB9FA;}
	.st6{fill:#9364CC;}
	.st7{fill:#783CBD;}
	.st8{fill:#F5787A;}
</style>
<path class="st8" d="M17.6,0.4C8.1,0.4,0.5,8,0.5,17.5c0,8.6,10.6,19.8,15.1,24.2c1.1,1.1,2.8,1.1,4,0c4.5-4.2,15.1-15,15.1-24.2
	C34.6,8,27,0.4,17.6,0.4z M17.6,31.2c-1.1,0-2-0.9-2-2c0-1.1,0.9-2,2-2c1.1,0,2,0.9,2,2C19.6,30.3,18.7,31.2,17.6,31.2z M18.4,25.8
	h-1.6l-1.3-13.7c0-0.7,0.1-1.3,0.5-1.8c0.4-0.6,0.9-0.8,1.6-0.8c0.7,0,1.3,0.3,1.6,0.8c0.3,0.5,0.5,1.1,0.4,1.8L18.4,25.8z"/>
</svg>
